<?xml version="1.0" encoding="utf-8"?>
<!-- Generator: Adobe Illustrator 21.0.0, SVG Export Plug-In . SVG Version: 6.00 Build 0)  -->
<svg version="1.1" xmlns="http://www.w3.org/2000/svg" xmlns:xlink="http://www.w3.org/1999/xlink" x="0px" y="0px"
	 viewBox="0 0 1400 980" enable-background="new 0 0 1400 980" xml:space="preserve">
<g id="background">
	<rect fill="#A9EFCF" width="1400" height="980"/>
	<path fill="#FAC88F" d="M0,610.9c0,0,768,59,1400-207.9v577H0V610.9z"/>
	<ellipse opacity="0.3" fill="#C26664" cx="693.3" cy="756.5" rx="270.7" ry="65"/>
</g>
<g id="object">
	<g>
		<polygon fill="#8BC53F" points="351,122 358.5,134.5 367,128.3 363.5,119.5 		"/>
		<polygon fill="#8BC53F" points="1272,212.8 1279.5,225.3 1288,219 1284.5,210.3 		"/>
		<polygon fill="#8BC53F" points="770.5,66.8 778,79.3 786.5,73 783,64.3 		"/>
		<polygon fill="#8BC53F" points="667.8,150.8 696.8,143.3 686.3,150.8 670.3,159.3 		"/>
		<polygon fill="#8BC53F" points="373.4,361.8 402.4,354.3 391.9,361.8 375.9,370.3 		"/>
		<polygon fill="#8BC53F" points="498.1,256.8 510.6,280.8 520.1,273.2 509.1,259.3 		"/>
		<polygon fill="#8BC53F" points="1247.1,103.5 1240.1,113.5 1247.1,118 1250.1,110.8 		"/>
		<polygon fill="#8BC53F" points="867,134.5 880,134.5 873.5,144 		"/>
		<polygon fill="#8BC53F" points="1043.4,143.3 1056.4,143.3 1049.9,152.8 		"/>
		<polygon fill="#8BC53F" points="499.5,179.3 499.5,188.8 481.5,188.8 490.5,179.3 		"/>
		<polygon fill="#8BC53F" points="298.5,201 308.5,209.7 303.5,212 298.5,206.5 		"/>
		<polygon fill="#8BC53F" points="1206,334.2 1216,342.9 1211,345.2 1206,339.7 		"/>
		<polygon fill="#1B75BB" points="1160.6,122.8 1168.1,135.3 1176.6,129 1173.1,120.3 		"/>
		<polygon fill="#1B75BB" points="1296,90.8 1303.5,103.3 1312,97 1308.5,88.3 		"/>
		<polygon fill="#1B75BB" points="401.2,198.1 374.7,212.2 383.2,202.4 396.8,190.4 		"/>
		<polygon fill="#1B75BB" points="868,73.6 841.5,87.6 850,77.9 863.6,65.9 		"/>
		<polygon fill="#1B75BB" points="523.3,107.5 535.8,131.5 545.3,124 534.3,110 		"/>
		<polygon fill="#1B75BB" points="792.8,166.5 785.8,176.5 792.8,181 795.8,173.8 		"/>
		<polygon fill="#1B75BB" points="241,362.5 234,372.5 241,377 244,369.8 		"/>
		<polygon fill="#1B75BB" points="1127.1,201.8 1140.1,201.8 1133.6,211.3 		"/>
		<polygon fill="#1B75BB" points="1194.6,211.3 1194.6,220.8 1176.6,220.8 1185.6,211.3 		"/>
		<polygon fill="#1B75BB" points="619.4,59.5 619.4,69 601.4,69 610.4,59.5 		"/>
		<polygon fill="#1B75BB" points="224,276 224,285.5 206,285.5 215,276 		"/>
		<polygon fill="#1B75BB" points="1067.9,418.6 1067.9,428.1 1049.9,428.1 1058.9,418.6 		"/>
		<polygon fill="#1B75BB" points="1072.6,249.8 1082.6,258.4 1077.6,260.8 1072.6,255.3 		"/>
		<polygon fill="#D6DE23" points="676.2,90.8 683.7,103.3 692.2,97 688.7,88.3 		"/>
		<polygon fill="#D6DE23" points="1011.9,357.3 1019.4,369.8 1027.9,363.5 1024.4,354.8 		"/>
		<polygon fill="#D6DE23" points="935.2,101 945.6,129.1 937.1,119.4 927,104.4 		"/>
		<polygon fill="#D6DE23" points="308.5,127.3 321,151.3 330.5,143.7 319.5,129.8 		"/>
		<polygon fill="#D6DE23" points="595.2,159.3 588.2,169.3 595.2,173.8 598.2,166.5 		"/>
		<polygon fill="#D6DE23" points="1218,57 1211,67 1218,71.5 1221,64.3 		"/>
		<polygon fill="#D6DE23" points="188,183.2 181,193.2 188,197.7 191,190.4 		"/>
		<polygon fill="#D6DE23" points="1147.1,76.8 1140.1,86.8 1147.1,91.3 1150.1,84 		"/>
		<polygon fill="#D6DE23" points="405.7,241.7 418.7,241.7 412.2,251.2 		"/>
		<polygon fill="#D6DE23" points="493,54.8 506,54.8 499.5,64.3 		"/>
		<polygon fill="#D6DE23" points="710.2,179.3 710.2,188.8 692.2,188.8 701.2,179.3 		"/>
		<polygon fill="#D6DE23" points="588.2,217.8 598.2,226.4 593.2,228.8 588.2,223.3 		"/>
		<polygon fill="#D91346" points="437.5,105.8 445,118.3 453.5,112 450,103.3 		"/>
		<polygon fill="#D91346" points="1168.6,260.3 1197.6,252.8 1187.1,260.3 1171.1,268.8 		"/>
		<polygon fill="#D91346" points="137.9,52.8 116.3,73.6 121.8,61.9 131.5,46.6 		"/>
		<polygon fill="#D91346" points="1027.9,64.3 1040.4,88.3 1049.9,80.7 1038.9,66.8 		"/>
		<polygon fill="#D91346" points="982,234.5 975,244.5 982,249 985,241.7 		"/>
		<polygon fill="#D91346" points="170,136 163,146 170,150.5 173,143.3 		"/>
		<polygon fill="#D91346" points="431,179.3 444,179.3 437.5,188.8 		"/>
		<polygon fill="#D91346" points="616.1,325 629.1,325 622.6,334.5 		"/>
		<polygon fill="#D91346" points="768.2,113.5 768.2,123 750.2,123 759.2,113.5 		"/>
		<polygon fill="#D91346" points="298.5,41.9 298.5,51.4 280.5,51.4 289.5,41.9 		"/>
		<polygon fill="#D91346" points="248,114.8 258,123.4 253,125.8 248,120.3 		"/>
		<g>
			<path fill="#D91346" d="M883.8,622.6l0.2-0.3c4.2-7.2,12.1-20.7,15.9-29.9l0,0c1.8-4.4,4.7-7.8,8-11.8
				c6.1-7.4,13.8-16.6,19.3-36.5c7.9-28.3-0.6-54-6-62l-0.4-0.6l0.1-0.7c2.7-23,1.5-46.6-3.7-70.2c-8.3-37.3-34.3-82.4-42.1-95.4
				l-1.4-2.3l2.6-0.5c16.5-3.1,42.2-13.1,45.6-16.4c0.6-0.6,0.8-1.2,0.7-1.9c-0.2-0.7-0.9-1.1-1.6-1.4c-3.2-1.5-14.5-3.7-31.8-6.4
				c-6.8-1-12.5-1.9-16.7-2.4l-5.5-0.7l4.8-2.7c17.9-10,40.8-26.6,47.9-48.5c9.6-29.7-7.2-46.1-8-46.8l-2.5-2.4l0.4,3.4
				c0,0.2,2.6,20.9-9.7,39.1c-8.1,12-32,21.9-45.5,26.8l-1,0.4l-0.8-0.7c-0.2-0.2-5-4.2-12.2-5.5c-1.8-0.3-8.6,0.1-34.4,10.8
				l-0.4,0.2l-0.4,0c-20.1-1.4-30.7,1.6-41.3,6.9c-3.2,1.6-5.7,4.1-7.2,7.3l-0.6,1.2l-1.3-0.1c-7.8-0.8-46.7-6.9-45.1-44.2l0.3-7.5
				l-2.7,7c-0.3,0.9-8.4,22.5,1.2,42.1c5.5,11.1,15.5,19.4,29.9,24.4l1.8,0.6l-0.7,1.8c-0.4,1.2-0.9,2.8-1.5,4.9
				c-1.7,6-3.5,12.1-5.7,14c-1.5,1.4-6,3-14.2,5.5c-6.1,1.9-10.2,3.2-12,4.5c-2.9,2-3.1,7.7-3.3,14.2c-0.1,3.6-0.2,7.3-0.9,10.1
				c-1.3,5.3-1.5,13.4,2.1,19.2c2,3.2,5.1,5.3,9,6.2c8.9,1.9,18.4,3.3,25.9,3.8l6.5,0.5l-5.8,3c-9.4,4.8-19.2,11.4-29.2,19.4
				c-3.7,3-7.5,6.7-11,10.9l-0.2,0.2l-0.3,0.2c-4.8,2.7-47.9,26.7-79.5,23.8l-0.4-0.1c-3.5-1.2-22.2-7.1-42-3.4
				c-7.5,1.4-16.1,5.2-24.3,10.7l-0.4,0.3l-0.5,0c-7.2,0.4-44.2,3.5-65.6,22.6c-15.7,14.1-8,34.1-1.2,51.8
				c5.3,13.7,10.3,26.6,5.9,36.7c-2.4,5.6-8.3,8.2-17,7.7c-19-1.3-43.2-16.7-47.1-30c-3.5-12.3,1.1-23.3,5.7-33.9
				c3-7.1,5.9-13.8,6-20.4c0.3-9.7-3.5-18.1-10.7-24.5c-9.2-8-23.3-11.6-36.9-9.4c-10.3,1.7-16.6,5.5-21.6,8.6
				c-6.4,3.9-10.6,6.5-19.6,3.9l-4.3-1.2l2.1,3.9c0.2,0.4,5.5,9.7,21.7,12.4c9.5,1.6,20.5-3.3,30.2-7.6l0.3-0.1
				c6.5-2.9,12.7-5.6,16.6-5.4c9.4,0.5,14.9,7.4,15.4,19.5c0.2,3.7-3.2,11.8-6.8,20.3c-5.4,12.8-11.4,27.2-10.3,37.1
				c1.4,12.7,16.4,28.9,34.7,37.6c8.6,4.1,17.1,6.2,25.1,6.2c8,0,15.3-2.1,21.6-6.2c3.6-2.3,6.6-5,8.8-7.9l8.1-10.6l-5,12.4
				c-4.9,12.3-11.7,24.9-13.6,28.5l-0.3,0.6l-0.6,0.2c-3.7,1.4-16.1,6.4-21.5,12.7c-7.3,8.6-6.7,17.3-6.2,25.1
				c0.2,2.9,0.4,5.5,0.1,7.8c-0.3,2.2-0.3,6.3-0.4,10.9c-0.3,13.6-0.7,36.4-6.7,45c-6.9,9.8-5.2,16.9-3.6,20.3
				c0.7,1.5,1.7,2.9,2.9,4.1l0.4,0.4l0.1,0.6c2.5,12.9,6.4,22.1,10.1,23.9c3.7,1.9,9.8,2.9,17.6,2.9c10.1,0,19.3-1.6,21.3-2.5
				c0.9-0.4,2.5-1.6,2.6-5.2c0.3-6.4-3.9-16-12.4-21.7l-1.4-1l0.9-1.5c3.1-5.2,3.5-10.8,1.1-15.2c-2.9-5.6-2.1-47.6,1.1-53.5
				l0.2-0.4l0.4-0.3c3-2,5.3-6,7.1-9.2c0.6-1,1.2-2.1,1.7-2.8l0.4-0.6l0.7-0.2c1.1-0.3,3.2-0.5,5.3-0.8c7.5-0.8,20-2.2,30.7-8.9
				l1.3-0.8c11.5-7.2,24.6-15.4,35.4-28.5l0.5-0.6l0.8-0.1c10.2-1,19.2-0.8,29.6,3.6l1.3,0.6l-0.2,1.4c-0.2,1.5-0.6,4-0.9,7.9
				c-0.2,2.4-2.2,5.2-4.4,8.2c-2.7,3.7-5.8,7.9-5.6,12.4c0.1,3,0.9,5.4,1.9,8.1c1.6,4.5,3.5,10,3.5,21.7c0,12.8-1.7,20.6-2.8,25.7
				c-1,4.8-1.7,7.9-0.2,11c0.9,1.8,2.2,3.1,4,4.1l0.7,0.4l0.2,0.7c0.1,0.4,2.7,9.4,2.8,11.4c-0.1,1.6,1.4,3.8,3.9,6.2
				c1.5,1.4,5.5,4.7,9.1,4.3c1.6-0.2,5.2,0,10.5,0.3c4.7,0.3,8.4,0.5,11.2,0.5c5.6,0,5.8-0.9,6-1.7c1.3-4.9-4.2-13-14.8-21.5
				l-1.2-0.9l0.7-1.3c0.2-0.5,0.4-0.9,0.6-1.4c1-3.1,1.4-5.3-2.2-10.9c-2.4-4.3-0.4-28.9,1-41.3l0.1-1l1-0.4
				c12.9-5.7,24-15.1,27-17.9l0.6-0.5l0.8,0.1c2.9,0.3,5.7,0.5,8.6,0.5c5.4,0,9.9-0.5,12.7-1l2.1-0.3l0.1,2.1
				c0.2,6.2,0.1,12.4-0.4,18.5l0,0.1c0,1.3-0.4,13.5-6.3,20c-7.1,7.7-8.3,23.3-8.5,25.1l-0.1,0.4c-2.1,6.9-12.2,36-20.3,42.1
				c-7.3,5.5-11.6,10.4-10.6,18.1c0.1,1.1,0.4,2.2,0.9,3.2l0.4,1l-0.6,0.9c-3.8,5.2-16.4,23.3-18.7,37.4l-0.2,1.2l1.2,0.2
				c0.2,0,5.7,0.9,12.2,0.9c1.5,0,3.1-0.1,4.6-0.2l2-0.1v3l1.2,0c0.7,0,18-0.3,28.1-6.1c9-5.1,11.2-23.3,11.7-28.7l0.1-1.1l1-0.4
				c0.7-0.3,1.3-0.8,1.9-1.3c3.9-3.5,5.5-11.5,4-19.9c-0.8-4.6,8.3-27,13.3-38.1l0.3-0.7l0.7-0.3c3.3-1.4,6.3-3.8,7.8-6.5
				c2-3.4,3.2-9.2,4.4-15.2c0.6-2.9,1.2-5.8,1.8-8.3c1.2-4.5,7.9-13.7,15.1-23.3c1.7-2.3,3.4-4.6,5-6.9l0.3-0.3
				c7.3-6.1,10.5-15.3,11.3-18l0.1-0.4l0.3-0.3c1-1,2.1-2.2,3.1-3.3l0.5-0.6l0.8,0c10.7-0.3,30.1-3.2,41.6-4.9l2.7-0.4
				c3-0.5,7.3-0.2,12.3,0c6.5,0.3,14.6,0.8,22.2-0.4l2.6-0.4l-0.5,2.6c-0.7,3.3-1.6,6.9-2.7,10.9c-2.8,10-0.8,21.1,5.1,28.4
				c5.2,6.4,15,54.6,11,61c-2,3-2.3,6.4-1,9.6c1.1,2.7,3.3,5,6.4,6.9l1,0.6l-0.1,1.2c-1.8,15.4,0.1,26,5,28.4
				c4.2,2.1,11.9,3.9,17.8,4.9c4.3,0.8,7.7,1.2,10.1,1.2c3.1,0,3.4-0.6,3.8-1.2c0.1-0.2,0.2-0.5,0.2-0.8l0.3-2.2l2.1,0.6
				c5.1,1.5,10.7,2,13.4,1.1c1.3-0.5,2.1-1.2,2.5-2.3c2.6-8.2-4.6-24.3-12.2-36.5l-0.4-0.7l0.2-0.8c0.1-0.2,0.1-0.5,0.2-0.7
				c1.4-5.8-0.3-11.8-4.2-15.1l-0.3-0.2c-10.9-9.1-19.3-53.4-19-57.7l0-0.3c2.3-9.5,1.6-18.8,1.2-23.3l0-0.2
				c-0.1-0.7-0.1-1.4-0.1-1.9l0-0.5l0.2-0.4C881.9,625.9,882.8,624.3,883.8,622.6z M518.2,489.1c-3.2,5.8-6,34.9-6,34.9l-4.7,15.8
				c0,0-1-9.8-6.9-19.6c-5.9-9.7-5.4-29.6-5.4-29.6s5-9.6,11.3-13.6c6.3-4,20.8-6.4,21.4-6.4C527.9,470.6,521.4,483.3,518.2,489.1z"
				/>
			<g>
				<path fill="#E58C3C" d="M677,585.3c0.3,0.3,0.7,0.4,1.1,0.4c0.5,0,1.1-0.2,1.4-0.7c0.6-0.8,0.5-2-0.3-2.6
					c-43-33.7-1.9-154.8-1.4-156c0.3-1-0.2-2-1.1-2.3c-1-0.3-2,0.2-2.3,1.1c-0.1,0.3-10.8,31.4-15.8,66.3
					C651.8,538.9,658,570.4,677,585.3z"/>
				<path fill="#E58C3C" d="M920.9,484c-0.2,0-19.1-2-30.2-10.9c-11.2-9.1-35.5-54.9-35.7-55.4c-0.4-0.7-1.2-1.1-2.1-0.9
					c-0.8,0.2-1.4,0.9-1.4,1.8c0,0.4,0,39.1-2.8,55.4c-0.9,5-2.7,8.3-5.4,9.8c-3.4,1.9-7.3,0.4-7.3,0.3c-0.9-0.4-2,0.1-2.4,1
					c-0.4,0.9,0.1,2,1,2.4c0.1,0.1,2.2,0.9,4.9,0.9c1.7,0,3.7-0.3,5.6-1.4c3.8-2.1,6.2-6.3,7.3-12.4c2.1-12.5,2.7-36.7,2.8-48.8
					c7.2,13.2,23.9,42.7,33.2,50.2c11.9,9.6,31.3,11.7,32.1,11.7c1,0.1,1.9-0.6,2-1.6C922.7,485,921.9,484.1,920.9,484z"/>
				<path fill="#E58C3C" d="M716.6,649.9c-10.8,3.5-22.9-9.6-23-9.7c-0.7-0.7-1.8-0.8-2.6-0.1c-0.7,0.7-0.8,1.8-0.1,2.6
					c0.6,0.6,13.8,14.9,26.8,10.7c1.7-0.6,3-0.3,3.9,0.8c1.7,2.1,1.9,7.3-0.6,11.6c-1.4,2.4-4.6,6.4-11,5.4
					c-2.3-0.3-6.3-1.3-6.7-3.8c-0.4-2.2,1.9-5.2,4.2-6.3c0.8-0.4,1.6-0.5,1.8-0.3c2.5,2.6,1.3,4.3,1,4.6c-0.7,0.7-0.7,1.9,0.1,2.6
					c0.7,0.7,1.9,0.7,2.6-0.1c1.4-1.5,3-5.4-1-9.7c-1.4-1.5-3.7-1.7-6.1-0.5c-3.5,1.7-6.9,6.1-6.2,10.2c0.4,2.5,2.4,5.8,9.8,6.8
					c0.8,0.1,1.6,0.2,2.3,0.2c5.3,0,9.7-2.6,12.4-7.4c3-5.4,3.1-12.2,0.2-15.7C722.5,649.6,719.7,648.9,716.6,649.9z"/>
				<path fill="#E58C3C" d="M878,635.6c0.9,0.4,2,0,2.4-0.9c0.4-0.9,0-2-0.9-2.4c-0.6-0.3-13.9-6.2-20.2,0.4
					c-3,3.1-3.5,7.7-1.5,12.5c1.4,3.3,4.3,6.8,7.3,6.8c3.3,0,5.8-3.6,6.6-7.2c0.7-3.3-0.2-5.9-2.3-6.9l-3.5-1.6
					c-0.9-0.4-2,0-2.4,0.9c-0.4,0.9,0,2,0.9,2.4l3.5,1.6c0.4,0.2,0.6,1.3,0.3,2.8c-0.5,2.4-2.1,4.3-3,4.3c-0.7,0-2.7-1.5-4-4.5
					c-0.7-1.6-2-5.6,0.8-8.5C865.7,631.3,874.8,634.2,878,635.6z"/>
				<path fill="#E58C3C" d="M838.6,247.1c-0.7-0.8-1.8-0.8-2.6-0.2l-92.5,81.6c-0.8,0.7-0.8,1.8-0.2,2.6c0.4,0.4,0.9,0.6,1.4,0.6
					c0.4,0,0.9-0.2,1.2-0.5l92.5-81.6C839.2,249,839.3,247.9,838.6,247.1z"/>
				<path fill="#E58C3C" d="M685.6,623.9c-54.9-29.5-52.5-117.5-52.4-118.4c0-0.9-0.6-1.7-1.6-1.9c-0.9-0.1-1.8,0.4-2,1.3
					c-0.2,0.7-20.4,73.6-29.2,90c-0.5,0.9-0.1,2,0.7,2.5c0.9,0.5,2,0.1,2.5-0.7c6.9-12.8,20-57.3,26.2-78.9
					c0.5,9.1,1.8,22.4,5.3,36.7c8.3,34.8,25.2,59.9,48.8,72.6c0.3,0.1,0.6,0.2,0.9,0.2c0.7,0,1.3-0.4,1.6-1
					C686.8,625.5,686.5,624.4,685.6,623.9z"/>
				<path fill="#E58C3C" d="M484.9,625.3c-3.1,2-3.9,5.4-2,8.5c0.5,0.9,1.7,1.2,2.5,0.6c0.9-0.5,1.2-1.6,0.6-2.5
					c-0.3-0.5-1.3-2.1,0.9-3.6c2-1.3,5.4-1.4,6.7,0.5c1,1.4,1,3.5,0,5.6c-1.4,3-5.1,6.4-11.1,6.7c-8.8,0.5-11.5-18-11.5-18.2
					c-0.1-1-1-1.7-2.1-1.6c-1,0.1-1.7,1.1-1.6,2.1c0.1,0.7,2,14.5,9.1,19.6c11.3,9.4,14.8,20.4,9,28c-1.5,1.9-3,2.9-4.4,2.9
					c0,0-0.1,0-0.1,0c-1.8-0.1-3.4-1.6-4.1-2.5c-0.2-1.4-0.3-4.6,0.8-6.1c0.4-0.5,0.9-0.8,1.7-0.9c1.1-0.1,1.9,0.1,2.4,0.5
					c0.7,0.7,0.8,2.1,0.7,2.6c-0.1,1,0.6,1.9,1.6,2c1,0.1,1.9-0.6,2-1.6c0-0.3,0.3-3.5-1.8-5.5c-0.9-0.9-2.5-1.9-5.4-1.6
					c-1.8,0.2-3.2,1-4.2,2.4c-2.5,3.3-1.6,8.8-1.5,9.4c0,0.2,0.1,0.5,0.3,0.7c0.1,0.2,2.9,4.3,7.2,4.4c0.1,0,0.2,0,0.2,0
					c2.6,0,5.1-1.5,7.3-4.3c6.1-7.9,4.1-18.8-4.8-28.5c7.1-0.7,11.5-4.9,13.4-8.8c1.6-3.4,1.5-6.9-0.3-9.4
					C494,623,488.4,623,484.9,625.3z"/>
				<path fill="#E58C3C" d="M676.4,695.8c-1,0.3-1.5,1.3-1.2,2.3c0.1,0.3,7.5,25.2,2.4,37.1c-1.9,4.4-4.4,6.6-6.5,5.7
					c-1.4-0.6-2.5-2.6-1.8-4.3c1.5-3.8,3.4-3.8,3.4-3.8c1,0.1,1.9-0.6,2-1.6c0.1-1-0.6-1.9-1.6-2c-0.2,0-4.7-0.5-7.3,6
					c-1.4,3.4,0.4,7.6,3.8,9c0.7,0.3,1.5,0.5,2.3,0.5c2.9,0,6.3-2.1,8.9-8.1c5.6-13.1-2-38.5-2.3-39.6
					C678.4,696,677.4,695.5,676.4,695.8z"/>
				<path fill="#E58C3C" d="M853.9,679.3c-0.8-0.6-2-0.4-2.6,0.5c-0.6,0.8-0.4,2,0.5,2.6c11.6,8.1,29.5,23.3,28.1,29.9
					c-1.1,5-4.2,6-5.9,6.2c-2.5,0.3-4.6-0.8-5-1.8c-0.7-1.5-0.2-3.1,0.6-4c0.9-0.9,1.8-0.6,2.1-0.4c0.9,0.4,2,0,2.4-1
					c0.4-0.9,0-2-1-2.4c-2.2-0.9-4.5-0.5-6.2,1.3c-2,2.1-2.5,5.5-1.2,8.1c1.1,2.3,4.2,3.9,7.5,3.9c0.4,0,0.8,0,1.2-0.1
					c2.2-0.3,7.4-1.7,9.1-9.1C886,702,857.2,681.6,853.9,679.3z"/>
			</g>
			<g>
				<path fill="#1B75BB" d="M784.6,473.2c0,0,16.2,20.8,18.3,35.5c2.2,14.7-7,41.6-2.1,46.2c4.9,4.6,8.6-0.9,10.7-6.7
					c0,0,5.2-34.9-6.3-52.6C793.7,477.9,784.6,473.2,784.6,473.2z"/>
				<path fill="#1B75BB" d="M876.1,556.6c-6.8,13.3-9.9,21.3-5.1,19.1s14.8-26.3,22.3-37c7.5-10.7,17.2-24.8,17.2-24.8
					S882.9,543.3,876.1,556.6z"/>
			</g>
			<path fill="#1B75BB" d="M831.5,373.5c0,0,8.3,16.8,9.8,20.9c1.4,4.1,5.9,2.2,5.3-5.7c-0.6-8-9.8-18.1-9.8-18.1L831.5,373.5z"/>
			<path fill="#1B75BB" d="M809.9,467.1c0,0,15.9,8.2,27.3,7.2c11.4-1,3.9,6.8-3.7,6.3C826,480,809.9,467.1,809.9,467.1z"/>
			<path fill="#1B75BB" d="M550,449.1c0,0-8.5,29.7,9.8,39.8c12.4,6.9,46.5-0.5,63-23.5c16.5-23,11.3-26.9,11.3-26.9
				s-9.5,2.6-24.2-1.3C595.3,433.2,576.9,427.1,550,449.1z"/>
			<g>
				<path fill="#D6DE23" d="M615.2,438.3c-2.3,6.6-5.5,14.5-8.9,19.1c-6.3,8.8-25.3,20.7-35.6,14.7c-6.8-4-7.1-21.5-6.5-32.6
					c-0.4,0.2-0.9,0.5-1.3,0.7c-0.5,11.3-0.1,28.7,7.2,32.9c2.2,1.3,4.7,1.8,7.3,1.8c11,0,24.7-9.7,29.9-16.8
					c3.5-4.8,6.7-12.9,9.1-19.6C616,438.4,615.6,438.3,615.2,438.3z"/>
				<path fill="#D6DE23" d="M585.4,444.7c1.6,0.2,3.3-5,4.8-11.4c-0.4,0-0.9,0-1.3,0c-1.3,5.5-2.6,9.8-3.3,10.2c0,0-0.3-0.1-0.7-1.1
					c-0.8-1.7-1.4-5.1-1.7-8.8c-0.4,0-0.8,0.1-1.2,0.2c0.3,4.2,1.1,8,2.1,9.7C584.4,444.2,584.9,444.6,585.4,444.7z"/>
				<path fill="#D6DE23" d="M577.6,464.4c5.6,1.1,13.8-0.5,18.8-6c4.6-5,8.7-15.1,11.1-22c-0.4-0.1-9.4-2.2-9.8-2.3
					c-0.4-0.1-0.8-0.1-1.2-0.2c-0.5,3-1.3,6.3-2.5,9.4c-3.6,9-10.1,10.5-14.7,9c-1.9-0.6-1.9-9-1.1-18c-0.4,0.1-0.8,0.2-1.3,0.3
					c0.7-2.8-5.6,1.7-6,1.9c-0.6,8.8-1,19.8,0.3,23.4C572,462.1,574.2,463.7,577.6,464.4z M591.3,449.9c-0.3,0.4-0.6,0.7-1,1
					C590.7,450.6,591,450.3,591.3,449.9z"/>
			</g>
			<path fill="#8BC53F" d="M634.1,438.4c0,0-4.6,1.3-12.5,0.7c-2.3,7.9-3.1,15.5-14.2,26.3c-9.3,9.1-30.3,19.2-41.3,14.7
				c-7.6-3.1-7.3-25-6.4-38c-3.1,1.9-6.4,4.3-9.8,7.1c0,0-8.5,29.7,9.8,39.8c12.4,6.9,46.5-0.5,63-23.5
				C639.3,442.4,634.1,438.4,634.1,438.4z"/>
			<path fill="#1B75BB" d="M804.3,458.4c0,0,24.9,19.7,36.2,0c11.3-19.7-9.5-83.6-9.5-83.6s-46.8,6.4-59.3,4.4
				c-12.5-2-12.5-2-12.5-2s17.9,8,26.9,29.7C795,428.6,793.7,451,804.3,458.4z"/>
			<path fill="#8BC53F" d="M790.8,379.1c4.7,5.2,10.2,11.6,14.4,17.8c9.2,13.5,5.8,37.6,11,44.4c5.2,6.7,14.7,3.7,15.3-9
				c0.4-9.1-9.6-39.5-15.2-55.6C808.7,377.5,799.2,378.5,790.8,379.1z"/>
			<path fill="#1B75BB" d="M690.8,425.3c0,0,9.9,41.4,29.1,40.1c19.1-1.4,37.5-35.5,37.6-55.8s-7.6-28.1-7.6-28.1
				S722.2,385.7,690.8,425.3z"/>
			<path fill="#D6DE23" d="M708.5,424.5c-1-4.5-2.6-9.8-3.8-14.9c-2.5,2.5-5,5.1-7.5,8c-0.1,6.8,0.4,14,3.2,17
				C706.4,441.1,710.6,433.9,708.5,424.5z"/>
			<g>
				<path fill="#8BC53F" d="M763,413.7c-0.7-0.1-1.3,0.5-1.3,1.1c0,0.8-0.1,1.6-0.2,2.4c-0.1,0.7,0.4,1.3,1.1,1.3c0,0,0.1,0,0.1,0
					c0.6,0,1.2-0.5,1.2-1.1c0.1-0.8,0.1-1.7,0.2-2.5C764.2,414.3,763.7,413.7,763,413.7z"/>
				<path fill="#8BC53F" d="M740.5,459.3c-0.6,0.6-1.1,1.1-1.7,1.7c-0.5,0.5-0.5,1.2-0.1,1.7c0.2,0.3,0.6,0.4,0.9,0.4
					c0.3,0,0.6-0.1,0.8-0.3c0.6-0.6,1.2-1.1,1.8-1.7c0.5-0.5,0.5-1.2,0-1.7C741.8,458.9,741,458.9,740.5,459.3z"/>
				<path fill="#8BC53F" d="M749.9,448.4c-0.5,0.6-0.9,1.3-1.4,1.9c-0.4,0.5-0.3,1.3,0.2,1.7c0.2,0.2,0.5,0.2,0.7,0.2
					c0.4,0,0.7-0.2,1-0.5c0.5-0.7,1-1.3,1.5-2c0.4-0.6,0.3-1.3-0.3-1.7C751,447.7,750.3,447.8,749.9,448.4z"/>
				<path fill="#8BC53F" d="M745.4,454.1c-0.5,0.6-1,1.2-1.6,1.8c-0.5,0.5-0.4,1.3,0.1,1.7c0.2,0.2,0.5,0.3,0.8,0.3
					c0.3,0,0.7-0.1,0.9-0.4c0.6-0.6,1.1-1.2,1.6-1.9c0.4-0.5,0.4-1.3-0.1-1.7C746.7,453.5,745.9,453.5,745.4,454.1z"/>
				<path fill="#8BC53F" d="M755.4,441.8c-0.6-0.3-1.3-0.1-1.7,0.5c-0.4,0.7-0.8,1.4-1.2,2.1c-0.3,0.6-0.2,1.3,0.4,1.7
					c0.2,0.1,0.4,0.2,0.6,0.2c0.4,0,0.8-0.2,1-0.6c0.4-0.7,0.8-1.4,1.2-2.2C756.2,442.8,755.9,442.1,755.4,441.8z"/>
				<path fill="#8BC53F" d="M758.4,435.1c-0.6-0.3-1.3,0-1.6,0.7c-0.3,0.7-0.6,1.5-1,2.2c-0.3,0.6,0,1.3,0.6,1.6
					c0.2,0.1,0.3,0.1,0.5,0.1c0.5,0,0.9-0.3,1.1-0.7c0.4-0.8,0.7-1.5,1-2.3C759.4,436.1,759.1,435.4,758.4,435.1z"/>
				<path fill="#8BC53F" d="M762.3,421c-0.7-0.1-1.3,0.3-1.4,1c-0.1,0.8-0.3,1.6-0.5,2.4c-0.1,0.7,0.3,1.3,0.9,1.4
					c0.1,0,0.2,0,0.3,0c0.6,0,1.1-0.4,1.2-1c0.2-0.8,0.3-1.6,0.5-2.4C763.4,421.7,763,421.1,762.3,421z"/>
				<path fill="#8BC53F" d="M760.8,428.2c-0.6-0.2-1.3,0.2-1.5,0.8c-0.2,0.8-0.5,1.5-0.7,2.3c-0.2,0.6,0.1,1.3,0.8,1.5
					c0.1,0,0.3,0.1,0.4,0.1c0.5,0,1-0.3,1.2-0.8c0.3-0.8,0.5-1.6,0.7-2.4C761.8,429,761.4,428.3,760.8,428.2z"/>
				<path fill="#8BC53F" d="M703.2,461.6c-0.4-0.5-1.2-0.6-1.7-0.1c-0.5,0.4-0.6,1.2-0.1,1.7c0.6,0.6,1.1,1.3,1.7,1.9
					c0.2,0.3,0.6,0.4,0.9,0.4c0.3,0,0.6-0.1,0.8-0.3c0.5-0.5,0.5-1.2,0-1.7C704.3,462.8,703.7,462.2,703.2,461.6z"/>
				<path fill="#8BC53F" d="M729.5,468.6c-0.7,0.4-1.4,0.8-2,1.1c-0.6,0.3-0.9,1-0.6,1.6c0.2,0.4,0.6,0.7,1.1,0.7
					c0.2,0,0.4,0,0.5-0.1c0.7-0.4,1.5-0.8,2.3-1.3c0.6-0.4,0.7-1.1,0.4-1.7C730.8,468.4,730,468.2,729.5,468.6z"/>
				<path fill="#8BC53F" d="M695,449.7c-0.3-0.6-1.1-0.8-1.7-0.5c-0.6,0.3-0.8,1.1-0.5,1.7c0.4,0.7,0.8,1.4,1.3,2.1
					c0.2,0.4,0.6,0.6,1,0.6c0.2,0,0.4-0.1,0.6-0.2c0.6-0.3,0.8-1.1,0.4-1.7C695.8,451.1,695.4,450.4,695,449.7z"/>
				<path fill="#8BC53F" d="M692.7,445.4c-0.4-0.7-0.7-1.5-1.1-2.2c-0.3-0.6-1-0.9-1.6-0.6c-0.6,0.3-0.9,1-0.6,1.6
					c0.4,0.7,0.7,1.5,1.1,2.2c0.2,0.4,0.6,0.7,1.1,0.7c0.2,0,0.4,0,0.6-0.1C692.8,446.8,693,446,692.7,445.4z"/>
				<path fill="#8BC53F" d="M689.6,438.8c-0.4-0.8-0.7-1.6-1-2.2c-0.3-0.6-1-0.9-1.6-0.7c-0.6,0.3-0.9,1-0.7,1.6
					c0.3,0.7,0.6,1.4,1,2.3c0.2,0.5,0.6,0.7,1.1,0.7c0.2,0,0.3,0,0.5-0.1C689.6,440.2,689.8,439.5,689.6,438.8z"/>
				<path fill="#8BC53F" d="M698.8,455.8c-0.4-0.6-1.1-0.7-1.7-0.3c-0.6,0.4-0.7,1.1-0.3,1.7c0.5,0.7,0.9,1.4,1.4,2
					c0.2,0.3,0.6,0.5,1,0.5c0.3,0,0.5-0.1,0.7-0.2c0.5-0.4,0.7-1.2,0.3-1.7C699.8,457.2,699.3,456.5,698.8,455.8z"/>
				<path fill="#8BC53F" d="M723.1,471.1c-0.7,0.1-1.5,0.2-2.2,0.3c-0.7,0-1.2,0.6-1.2,1.3c0,0.7,0.6,1.2,1.2,1.2c0,0,0,0,0,0
					c0.9,0,1.7-0.1,2.6-0.3c0.7-0.1,1.1-0.8,1-1.4C724.4,471.5,723.8,471,723.1,471.1z"/>
				<path fill="#8BC53F" d="M716.4,470.9c-0.7-0.2-1.4-0.4-2.2-0.7c-0.6-0.3-1.3,0-1.6,0.7c-0.3,0.6,0,1.3,0.7,1.6
					c0.8,0.3,1.6,0.6,2.5,0.8c0.1,0,0.2,0,0.3,0c0.5,0,1-0.4,1.2-0.9C717.5,471.7,717.1,471.1,716.4,470.9z"/>
				<path fill="#8BC53F" d="M708.3,466.5c-0.5-0.4-1.3-0.3-1.7,0.2c-0.4,0.5-0.3,1.3,0.2,1.7c0.7,0.5,1.4,1.1,2,1.5
					c0.2,0.1,0.5,0.2,0.7,0.2c0.4,0,0.8-0.2,1-0.5c0.4-0.6,0.2-1.3-0.3-1.7C709.6,467.5,708.9,467,708.3,466.5z"/>
				<path fill="#8BC53F" d="M762.9,406.3c-0.7,0-1.2,0.6-1.2,1.3c0,0.8,0.1,1.6,0.1,2.4c0,0.7,0.6,1.2,1.2,1.2c0,0,0,0,0,0
					c0.7,0,1.2-0.6,1.2-1.2c0-0.8,0-1.7-0.1-2.5C764.2,406.8,763.6,406.3,762.9,406.3z"/>
				<path fill="#8BC53F" d="M735.2,464.2c-0.6,0.5-1.2,1-1.9,1.5c-0.5,0.4-0.6,1.2-0.2,1.7c0.2,0.3,0.6,0.5,1,0.5
					c0.3,0,0.5-0.1,0.8-0.3c0.7-0.5,1.3-1,1.9-1.6c0.5-0.4,0.6-1.2,0.1-1.7C736.4,463.8,735.7,463.8,735.2,464.2z"/>
				<path fill="#8BC53F" d="M760.7,388c-0.3-0.8-0.5-1.6-0.8-2.4c-0.2-0.6-0.9-1-1.6-0.7c-0.6,0.2-1,0.9-0.7,1.6
					c0.2,0.7,0.5,1.5,0.8,2.3c0.2,0.5,0.6,0.9,1.2,0.9c0.1,0,0.2,0,0.4-0.1C760.6,389.3,760.9,388.6,760.7,388z"/>
				<path fill="#8BC53F" d="M754.9,379.8c0,0,0.4,0.8,1,2.1c0.2,0.5,0.6,0.7,1.1,0.7c0.2,0,0.3,0,0.5-0.1c0.6-0.3,0.9-1,0.6-1.6
					c-0.6-1.5-1.1-2.3-1.1-2.3c-0.3-0.6-1.1-0.8-1.7-0.5C754.8,378.5,754.6,379.2,754.9,379.8z"/>
				<path fill="#8BC53F" d="M760.6,391.9c-0.7,0.2-1.1,0.8-0.9,1.5c0.2,0.8,0.4,1.5,0.5,2.3c0.1,0.6,0.6,1,1.2,1c0.1,0,0.2,0,0.3,0
					c0.7-0.1,1.1-0.8,0.9-1.5c-0.2-0.8-0.4-1.6-0.6-2.4C761.9,392.1,761.2,391.7,760.6,391.9z"/>
				<path fill="#8BC53F" d="M761.1,400.4c0.1,0.8,0.2,1.6,0.3,2.4c0.1,0.6,0.6,1.1,1.2,1.1c0,0,0.1,0,0.1,0c0.7-0.1,1.2-0.7,1.1-1.4
					c-0.1-0.8-0.2-1.7-0.3-2.5c-0.1-0.7-0.7-1.1-1.4-1C761.4,399.1,761,399.8,761.1,400.4z"/>
				<path fill="#8BC53F" d="M575.3,497.8c-0.8,0.1-1.6,0.1-2.4,0.1c-0.7,0-1.2,0.6-1.2,1.2c0,0.7,0.6,1.2,1.2,1.2c0,0,0,0,0,0
					c0.8,0,1.7-0.1,2.5-0.1c0.7,0,1.2-0.6,1.1-1.3S576,497.7,575.3,497.8z"/>
				<path fill="#8BC53F" d="M561.3,496.4c-0.8-0.2-1.5-0.5-2.2-0.8c-0.6-0.3-1.3,0-1.6,0.7c-0.3,0.6,0,1.3,0.7,1.6
					c0.8,0.3,1.6,0.6,2.4,0.9c0.1,0,0.2,0.1,0.4,0.1c0.5,0,1-0.3,1.2-0.9C562.3,497.3,561.9,496.6,561.3,496.4z"/>
				<path fill="#8BC53F" d="M568.2,497.7c-0.5,0-1-0.1-1.5-0.2c-0.3,0-0.6-0.1-0.8-0.1c-0.7-0.1-1.3,0.4-1.4,1
					c-0.1,0.7,0.4,1.3,1,1.4c0.3,0,0.6,0.1,0.9,0.1c0.5,0.1,1.1,0.1,1.6,0.2c0,0,0.1,0,0.1,0c0.6,0,1.2-0.5,1.2-1.1
					C569.4,498.4,568.9,497.8,568.2,497.7z"/>
				<path fill="#8BC53F" d="M582.4,496.7c-0.8,0.2-1.6,0.3-2.3,0.5c-0.7,0.1-1.1,0.7-1,1.4c0.1,0.6,0.6,1,1.2,1c0.1,0,0.1,0,0.2,0
					c0.8-0.1,1.6-0.3,2.5-0.5c0.7-0.1,1.1-0.8,0.9-1.5C583.7,497,583.1,496.6,582.4,496.7z"/>
				<path fill="#8BC53F" d="M541.9,455.5c0.1,0,0.1,0,0.2,0c0.6,0,1.1-0.5,1.2-1.1c0.2-1.5,0.3-2.3,0.4-2.3c0.1-0.7-0.3-1.3-1-1.4
					c-0.7-0.1-1.3,0.3-1.4,1c0,0-0.2,0.9-0.4,2.5C540.8,454.8,541.3,455.4,541.9,455.5z"/>
				<path fill="#8BC53F" d="M555.3,495.1c0.4-0.6,0.2-1.3-0.3-1.7c-0.6-0.4-1.3-0.9-1.9-1.4c-0.5-0.4-1.3-0.4-1.7,0.2
					c-0.4,0.5-0.4,1.3,0.2,1.7c0.7,0.5,1.3,1.1,2.1,1.5c0.2,0.1,0.4,0.2,0.7,0.2C554.7,495.6,555.1,495.4,555.3,495.1z"/>
				<path fill="#8BC53F" d="M541.5,462.8C541.5,462.8,541.5,462.8,541.5,462.8c0.7,0,1.2-0.5,1.3-1.2c0-0.8,0.1-1.6,0.1-2.4
					c0-0.7-0.5-1.3-1.2-1.3c-0.7,0-1.3,0.5-1.3,1.2c0,0.8-0.1,1.6-0.1,2.5C540.3,462.2,540.9,462.8,541.5,462.8z"/>
				<path fill="#8BC53F" d="M549.7,490.4c0.5-0.4,0.6-1.2,0.2-1.7c-0.5-0.6-0.9-1.2-1.4-1.9c-0.4-0.6-1.1-0.7-1.7-0.4
					c-0.6,0.4-0.7,1.1-0.4,1.7c0.5,0.7,1,1.4,1.5,2.1c0.2,0.3,0.6,0.5,1,0.5C549.2,490.6,549.5,490.6,549.7,490.4z"/>
				<path fill="#8BC53F" d="M589.3,494.8c-0.8,0.3-1.5,0.5-2.3,0.7c-0.6,0.2-1,0.9-0.8,1.5c0.2,0.5,0.6,0.9,1.2,0.9
					c0.1,0,0.2,0,0.4-0.1c0.8-0.2,1.6-0.5,2.4-0.8c0.6-0.2,1-0.9,0.8-1.6C590.7,494.9,590,494.6,589.3,494.8z"/>
				<path fill="#8BC53F" d="M624.5,470.2c-0.5,0.6-1.1,1.2-1.6,1.8c-0.5,0.5-0.4,1.3,0.1,1.7c0.2,0.2,0.5,0.3,0.8,0.3
					c0.3,0,0.7-0.1,0.9-0.4c0.6-0.6,1.1-1.2,1.7-1.8c0.4-0.5,0.4-1.3-0.1-1.7C625.7,469.6,625,469.7,624.5,470.2z"/>
				<path fill="#8BC53F" d="M619.5,475.4c-0.6,0.6-1.2,1.1-1.7,1.7c-0.5,0.5-0.5,1.2-0.1,1.7c0.2,0.3,0.6,0.4,0.9,0.4
					c0.3,0,0.6-0.1,0.8-0.3c0.6-0.6,1.2-1.1,1.8-1.7c0.5-0.5,0.5-1.2,0-1.7C620.8,475,620,475,619.5,475.4z"/>
				<path fill="#8BC53F" d="M628.6,468.4c0.4,0,0.7-0.2,1-0.5c0.5-0.7,1-1.3,1.5-2c0.4-0.5,0.3-1.3-0.2-1.7
					c-0.5-0.4-1.3-0.3-1.7,0.2c-0.5,0.6-1,1.3-1.5,1.9c-0.4,0.5-0.3,1.3,0.2,1.7C628,468.4,628.3,468.4,628.6,468.4z"/>
				<path fill="#8BC53F" d="M596,492.1c-0.7,0.3-1.5,0.7-2.2,1c-0.6,0.3-0.9,1-0.6,1.6c0.2,0.5,0.7,0.7,1.1,0.7c0.2,0,0.3,0,0.5-0.1
					c0.8-0.3,1.5-0.7,2.3-1c0.6-0.3,0.9-1,0.6-1.6C597.3,492,596.6,491.8,596,492.1z"/>
				<path fill="#8BC53F" d="M633.9,462c0.5-0.7,0.9-1.4,1.4-2.1c0.4-0.6,0.2-1.3-0.4-1.7c-0.6-0.4-1.3-0.2-1.7,0.4
					c-0.4,0.7-0.9,1.4-1.3,2c-0.4,0.6-0.2,1.3,0.3,1.7c0.2,0.1,0.4,0.2,0.7,0.2C633.3,462.5,633.7,462.3,633.9,462z"/>
				<path fill="#8BC53F" d="M614.2,480.3c-0.6,0.5-1.2,1-1.9,1.5c-0.5,0.4-0.6,1.2-0.2,1.7c0.2,0.3,0.6,0.5,1,0.5
					c0.3,0,0.5-0.1,0.8-0.3c0.6-0.5,1.3-1,1.9-1.6c0.5-0.4,0.6-1.2,0.2-1.7C615.5,479.9,614.7,479.9,614.2,480.3z"/>
				<path fill="#8BC53F" d="M602.4,488.7c-0.7,0.4-1.4,0.8-2.1,1.2c-0.6,0.3-0.8,1.1-0.5,1.7c0.2,0.4,0.6,0.6,1.1,0.6
					c0.2,0,0.4,0,0.6-0.2c0.7-0.4,1.4-0.8,2.2-1.2c0.6-0.3,0.8-1.1,0.4-1.7C603.7,488.5,603,488.3,602.4,488.7z"/>
				<path fill="#8BC53F" d="M543.1,481.3c0.3,0.8,0.6,1.6,0.9,2.3c0.2,0.5,0.6,0.7,1.1,0.7c0.2,0,0.3,0,0.5-0.1
					c0.6-0.3,0.9-1,0.6-1.6c-0.3-0.7-0.6-1.4-0.9-2.2c-0.2-0.6-0.9-1-1.6-0.7C543.2,480,542.9,480.7,543.1,481.3z"/>
				<path fill="#8BC53F" d="M608.4,484.7c-0.7,0.5-1.3,0.9-2,1.4c-0.6,0.4-0.7,1.1-0.3,1.7c0.2,0.4,0.6,0.5,1,0.5
					c0.2,0,0.5-0.1,0.7-0.2c0.7-0.5,1.4-0.9,2-1.4c0.6-0.4,0.7-1.2,0.3-1.7C609.8,484.5,609,484.3,608.4,484.7z"/>
				<path fill="#8BC53F" d="M642.3,442.8c0.1,0,0.3,0.1,0.4,0.1c0.5,0,1-0.3,1.2-0.8c0.3-0.8,0.5-1.6,0.7-2.4
					c0.2-0.6-0.2-1.3-0.8-1.5c-0.6-0.2-1.3,0.2-1.5,0.8c-0.2,0.8-0.5,1.5-0.7,2.3C641.3,441.9,641.7,442.6,642.3,442.8z"/>
				<path fill="#8BC53F" d="M541.9,470.2c0.7-0.1,1.2-0.7,1.1-1.3c-0.1-0.8-0.1-1.6-0.2-2.4c0-0.7-0.6-1.2-1.3-1.2
					c-0.7,0-1.2,0.6-1.2,1.3c0,0.8,0.1,1.6,0.2,2.5c0.1,0.6,0.6,1.1,1.2,1.1C541.8,470.2,541.8,470.2,541.9,470.2z"/>
				<path fill="#8BC53F" d="M637.8,455.6c0.4-0.7,0.8-1.5,1.2-2.2c0.3-0.6,0.1-1.3-0.5-1.7c-0.6-0.3-1.3-0.1-1.7,0.5
					c-0.4,0.7-0.8,1.4-1.1,2.1c-0.3,0.6-0.1,1.3,0.5,1.7c0.2,0.1,0.4,0.2,0.6,0.2C637.2,456.3,637.6,456,637.8,455.6z"/>
				<path fill="#8BC53F" d="M542.9,477.4c0.1,0,0.2,0,0.3,0c0.7-0.2,1.1-0.8,0.9-1.5c-0.2-0.8-0.3-1.6-0.5-2.3
					c-0.1-0.7-0.7-1.1-1.4-1c-0.7,0.1-1.1,0.8-1,1.4c0.1,0.8,0.3,1.6,0.5,2.5C541.8,477,542.3,477.4,542.9,477.4z"/>
				<path fill="#8BC53F" d="M639.5,449.6c0.2,0.1,0.3,0.1,0.5,0.1c0.5,0,0.9-0.3,1.1-0.7c0.3-0.8,0.7-1.5,1-2.3
					c0.3-0.6,0-1.3-0.7-1.6c-0.6-0.3-1.3,0-1.6,0.7c-0.3,0.7-0.6,1.5-0.9,2.2C638.7,448.6,638.9,449.3,639.5,449.6z"/>
				<path fill="#8BC53F" d="M655.5,478.2c0.2-0.8,0.4-1.6,0.5-2.4c0.2-0.7-0.3-1.3-0.9-1.5c-0.7-0.2-1.3,0.3-1.5,0.9
					c-0.2,0.8-0.4,1.6-0.5,2.4c-0.1,0.7,0.3,1.3,0.9,1.5c0.1,0,0.2,0,0.3,0C654.9,479.1,655.4,478.7,655.5,478.2z"/>
				<path fill="#8BC53F" d="M652.7,492.5c0.1-0.8,0.3-1.6,0.4-2.4c0.1-0.7-0.3-1.3-1-1.4c-0.7-0.1-1.3,0.3-1.4,1
					c-0.2,0.8-0.3,1.6-0.4,2.4c-0.1,0.7,0.3,1.3,1,1.4c0.1,0,0.1,0,0.2,0C652,493.5,652.5,493.1,652.7,492.5z"/>
				<path fill="#8BC53F" d="M658.9,463.9c0.2-0.8,0.4-1.6,0.6-2.4c0.2-0.7-0.2-1.3-0.9-1.5c-0.7-0.2-1.3,0.2-1.5,0.9
					c-0.2,0.8-0.4,1.6-0.6,2.4c-0.2,0.7,0.2,1.3,0.9,1.5c0.1,0,0.2,0,0.3,0C658.3,464.8,658.8,464.5,658.9,463.9z"/>
				<path fill="#8BC53F" d="M657.2,471c0.2-0.8,0.4-1.6,0.6-2.4c0.2-0.7-0.2-1.3-0.9-1.5c-0.7-0.2-1.3,0.2-1.5,0.9
					c-0.2,0.8-0.4,1.6-0.6,2.4c-0.2,0.7,0.2,1.3,0.9,1.5c0.1,0,0.2,0,0.3,0C656.5,472,657,471.6,657.2,471z"/>
				<path fill="#8BC53F" d="M659.3,457.7c0.1,0,0.2,0,0.3,0c0.5,0,1-0.4,1.2-0.9c0.2-0.8,0.4-1.6,0.6-2.4c0.2-0.7-0.2-1.3-0.9-1.5
					c-0.7-0.2-1.3,0.2-1.5,0.9c-0.2,0.8-0.4,1.6-0.6,2.4C658.3,456.8,658.6,457.5,659.3,457.7z"/>
				<path fill="#8BC53F" d="M661.3,450.6c0.1,0,0.2,0,0.3,0c0.5,0,1-0.4,1.2-0.9l0.7-2.3c0.2-0.6-0.2-1.3-0.8-1.5
					c-0.7-0.2-1.3,0.2-1.5,0.8l-0.7,2.4C660.2,449.7,660.6,450.4,661.3,450.6z"/>
				<path fill="#8BC53F" d="M665.5,436.5c0.1,0,0.2,0.1,0.4,0.1c0.5,0,1-0.3,1.2-0.9c0.3-0.9,0.5-1.7,0.8-2.3
					c0.2-0.6-0.1-1.3-0.8-1.5c-0.6-0.2-1.3,0.1-1.5,0.8c-0.2,0.7-0.5,1.5-0.8,2.3C664.5,435.6,664.8,436.3,665.5,436.5z"/>
				<path fill="#8BC53F" d="M649.6,514.2c0.1-0.8,0.2-1.6,0.3-2.4c0.1-0.7-0.4-1.3-1.1-1.3c-0.7-0.1-1.3,0.4-1.3,1.1
					c-0.1,0.8-0.2,1.6-0.3,2.5c-0.1,0.7,0.4,1.3,1.1,1.3c0,0,0.1,0,0.1,0C649,515.3,649.5,514.9,649.6,514.2z"/>
				<path fill="#8BC53F" d="M650.4,507c0.1-0.8,0.2-1.6,0.3-2.4c0.1-0.7-0.4-1.3-1-1.4c-0.7-0.1-1.3,0.4-1.4,1
					c-0.1,0.8-0.2,1.6-0.3,2.4c-0.1,0.7,0.4,1.3,1.1,1.4c0.1,0,0.1,0,0.2,0C649.8,508,650.3,507.6,650.4,507z"/>
				<path fill="#8BC53F" d="M651.4,499.7c0.1-0.8,0.3-1.6,0.4-2.4c0.1-0.7-0.3-1.3-1-1.4c-0.7-0.1-1.3,0.3-1.4,1
					c-0.1,0.8-0.3,1.6-0.4,2.4c-0.1,0.7,0.4,1.3,1,1.4c0.1,0,0.1,0,0.2,0C650.8,500.8,651.3,500.4,651.4,499.7z"/>
				<path fill="#8BC53F" d="M646.7,518.9c-0.1,0.8-0.1,1.6-0.2,2.5c0,0.7,0.5,1.3,1.1,1.3c0,0,0.1,0,0.1,0c0.6,0,1.2-0.5,1.2-1.1
					c0-0.8,0.1-1.6,0.2-2.4c0-0.7-0.5-1.3-1.1-1.3C647.3,517.7,646.8,518.2,646.7,518.9z"/>
				<path fill="#8BC53F" d="M654,485.3c0.2-0.8,0.3-1.6,0.5-2.4c0.1-0.7-0.3-1.3-0.9-1.4c-0.7-0.1-1.3,0.3-1.4,0.9
					c-0.2,0.8-0.3,1.6-0.5,2.4c-0.1,0.7,0.3,1.3,1,1.4c0.1,0,0.2,0,0.2,0C653.4,486.3,653.9,485.9,654,485.3z"/>
				<path fill="#8BC53F" d="M654.8,564.3c-0.3-0.7-0.5-1.5-0.8-2.3c-0.2-0.6-0.9-1-1.6-0.8c-0.6,0.2-1,0.9-0.8,1.6
					c0.3,0.8,0.6,1.6,0.8,2.3c0.2,0.5,0.7,0.8,1.1,0.8c0.1,0,0.3,0,0.4-0.1C654.7,565.6,655,564.9,654.8,564.3z"/>
				<path fill="#8BC53F" d="M657.6,571c-0.3-0.7-0.7-1.5-1-2.2c-0.3-0.6-1-0.9-1.6-0.6c-0.6,0.3-0.9,1-0.6,1.6
					c0.3,0.8,0.7,1.5,1,2.3c0.2,0.4,0.6,0.7,1.1,0.7c0.2,0,0.3,0,0.5-0.1C657.6,572.3,657.8,571.6,657.6,571z"/>
				<path fill="#8BC53F" d="M652.5,557.4c-0.2-0.8-0.5-1.5-0.7-2.3c-0.2-0.7-0.9-1-1.5-0.8c-0.7,0.2-1,0.9-0.8,1.5
					c0.2,0.8,0.5,1.6,0.7,2.4c0.2,0.5,0.6,0.9,1.2,0.9c0.1,0,0.2,0,0.4-0.1C652.3,558.7,652.7,558,652.5,557.4z"/>
				<path fill="#8BC53F" d="M659.7,575.3c-0.3-0.6-1.1-0.8-1.7-0.5c-0.6,0.3-0.8,1.1-0.5,1.7c0.4,0.7,0.8,1.5,1.2,2.2
					c0.2,0.4,0.6,0.6,1.1,0.6c0.2,0,0.4-0.1,0.6-0.2c0.6-0.3,0.8-1.1,0.5-1.7C660.5,576.7,660.1,576,659.7,575.3z"/>
				<path fill="#8BC53F" d="M650.6,550.4c-0.2-0.8-0.3-1.6-0.5-2.3c-0.1-0.7-0.8-1.1-1.4-1c-0.7,0.1-1.1,0.8-1,1.4
					c0.2,0.8,0.3,1.6,0.5,2.4c0.1,0.6,0.6,1,1.2,1c0.1,0,0.2,0,0.3,0C650.3,551.7,650.7,551.1,650.6,550.4z"/>
				<path fill="#8BC53F" d="M680.8,596.9c0,0-0.8-0.2-2.1-0.9c-0.6-0.3-1.3,0-1.6,0.6c-0.3,0.6,0,1.3,0.6,1.6c1.5,0.7,2.4,1,2.5,1
					c0.1,0,0.2,0,0.3,0c0.5,0,1-0.4,1.2-0.9C681.8,597.7,681.4,597.1,680.8,596.9z"/>
				<path fill="#8BC53F" d="M667.8,587.2c-0.4-0.5-1.2-0.6-1.7-0.1c-0.5,0.4-0.6,1.2-0.1,1.7c0.6,0.7,1.1,1.3,1.7,1.8
					c0.2,0.2,0.6,0.4,0.9,0.4c0.3,0,0.6-0.1,0.9-0.3c0.5-0.5,0.5-1.2,0-1.7C668.9,588.4,668.3,587.8,667.8,587.2z"/>
				<path fill="#8BC53F" d="M663.4,581.5c-0.4-0.6-1.1-0.7-1.7-0.3c-0.6,0.4-0.7,1.1-0.3,1.7c0.5,0.7,1,1.4,1.4,2
					c0.2,0.3,0.6,0.5,1,0.5c0.3,0,0.5-0.1,0.7-0.2c0.5-0.4,0.7-1.2,0.3-1.7C664.3,582.8,663.9,582.1,663.4,581.5z"/>
				<path fill="#8BC53F" d="M664.7,438.8c-0.6-0.2-1.3,0.2-1.5,0.8l-0.7,2.4c-0.2,0.6,0.2,1.3,0.8,1.5c0.1,0,0.2,0.1,0.4,0.1
					c0.5,0,1-0.3,1.2-0.9l0.7-2.3C665.7,439.7,665.4,439,664.7,438.8z"/>
				<path fill="#8BC53F" d="M672.9,592.1c-0.5-0.4-1.3-0.4-1.7,0.2c-0.4,0.5-0.4,1.3,0.2,1.7c0.7,0.6,1.4,1.1,2,1.5
					c0.2,0.2,0.5,0.2,0.7,0.2c0.4,0,0.8-0.2,1-0.5c0.4-0.5,0.3-1.3-0.3-1.7C674.1,593.2,673.5,592.7,672.9,592.1z"/>
				<path fill="#8BC53F" d="M647.6,537.3C647.6,537.3,647.6,537.3,647.6,537.3c0.7,0,1.3-0.6,1.2-1.3c0-0.8-0.1-1.6-0.1-2.4
					c0-0.7-0.6-1.2-1.2-1.2c0,0,0,0,0,0c-0.7,0-1.2,0.6-1.2,1.3c0,0.8,0,1.7,0.1,2.5C646.4,536.8,646.9,537.3,647.6,537.3z"/>
				<path fill="#8BC53F" d="M647.5,530C647.5,530,647.5,530,647.5,530c0.7,0,1.2-0.5,1.2-1.2c0-0.8,0-1.6,0.1-2.4
					c0-0.7-0.5-1.2-1.2-1.3c0,0,0,0,0,0c-0.7,0-1.2,0.5-1.2,1.2c0,0.8,0,1.6-0.1,2.5C646.3,529.4,646.8,530,647.5,530z"/>
				<path fill="#8BC53F" d="M648.3,544.7c0.7-0.1,1.1-0.7,1.1-1.4c-0.1-0.8-0.2-1.6-0.3-2.4c-0.1-0.7-0.7-1.2-1.3-1.1
					c-0.7,0.1-1.2,0.7-1.1,1.3c0.1,0.8,0.2,1.7,0.3,2.5c0.1,0.6,0.6,1.1,1.2,1.1C648.2,544.7,648.3,544.7,648.3,544.7z"/>
				<path fill="#8BC53F" d="M533.9,494.2c-0.4-0.6-1.2-0.7-1.7-0.3c-0.5,0.4-0.7,1.2-0.3,1.7c0.5,0.7,1,1.3,1.5,2
					c0.2,0.3,0.6,0.5,1,0.5c0.3,0,0.5-0.1,0.8-0.3c0.5-0.4,0.6-1.2,0.2-1.7C534.9,495.5,534.4,494.9,533.9,494.2z"/>
				<path fill="#8BC53F" d="M552.2,509c-0.7-0.3-1.5-0.6-2.2-1c-0.6-0.3-1.3,0-1.6,0.6c-0.3,0.6,0,1.3,0.6,1.6
					c0.7,0.4,1.5,0.7,2.3,1c0.2,0.1,0.3,0.1,0.5,0.1c0.5,0,0.9-0.3,1.1-0.7C553.1,509.9,552.8,509.2,552.2,509z"/>
				<path fill="#8BC53F" d="M538.5,499.7c-0.5-0.5-1.3-0.5-1.7,0c-0.5,0.5-0.5,1.2,0,1.7c0.6,0.6,1.2,1.2,1.8,1.7
					c0.2,0.2,0.5,0.3,0.8,0.3c0.3,0,0.7-0.1,0.9-0.4c0.5-0.5,0.4-1.3-0.1-1.7C539.6,500.8,539.1,500.2,538.5,499.7z"/>
				<path fill="#8BC53F" d="M634.1,478.7c-0.5,0.6-1,1.3-1.5,1.9c-0.4,0.5-0.3,1.3,0.2,1.7c0.2,0.2,0.5,0.3,0.8,0.3
					c0.4,0,0.7-0.2,0.9-0.4c0.5-0.6,1-1.3,1.5-1.9c0.4-0.5,0.3-1.3-0.2-1.7C635.3,478,634.5,478.1,634.1,478.7z"/>
				<path fill="#8BC53F" d="M545.9,505.6c-0.7-0.4-1.3-0.9-2-1.3c-0.5-0.4-1.3-0.3-1.7,0.3c-0.4,0.5-0.3,1.3,0.3,1.7
					c0.7,0.5,1.4,1,2.1,1.4c0.2,0.1,0.4,0.2,0.7,0.2c0.4,0,0.8-0.2,1-0.6C546.6,506.8,546.5,506,545.9,505.6z"/>
				<path fill="#8BC53F" d="M638.4,472.8c-0.5,0.7-0.9,1.3-1.4,2c-0.4,0.5-0.3,1.3,0.3,1.7c0.2,0.2,0.5,0.2,0.7,0.2
					c0.4,0,0.8-0.2,1-0.5c0.5-0.7,1-1.3,1.4-2c0.4-0.6,0.2-1.3-0.3-1.7C639.5,472.1,638.8,472.2,638.4,472.8z"/>
				<path fill="#8BC53F" d="M530.2,488.1c-0.3-0.6-1-0.8-1.6-0.5c-0.6,0.3-0.8,1-0.5,1.6c0.4,0.7,0.8,1.5,1.2,2.2
					c0.2,0.4,0.6,0.6,1.1,0.6c0.2,0,0.4-0.1,0.6-0.2c0.6-0.3,0.8-1.1,0.5-1.7C530.9,489.5,530.6,488.8,530.2,488.1z"/>
				<path fill="#8BC53F" d="M613.3,498.8c-0.7,0.5-1.3,0.9-2,1.4c-0.6,0.4-0.7,1.1-0.3,1.7c0.2,0.4,0.6,0.5,1,0.5
					c0.2,0,0.5-0.1,0.7-0.2c0.7-0.5,1.4-0.9,2-1.4c0.5-0.4,0.7-1.2,0.3-1.7C614.6,498.5,613.9,498.4,613.3,498.8z"/>
				<path fill="#8BC53F" d="M654,444c0.1,0,0.3,0.1,0.4,0.1c0.5,0,1-0.3,1.2-0.8c0.3-0.8,0.5-1.6,0.7-2.4c0.2-0.6-0.2-1.3-0.8-1.5
					c-0.7-0.2-1.3,0.2-1.5,0.8c-0.2,0.8-0.5,1.5-0.7,2.3C653,443.1,653.4,443.8,654,444z"/>
				<path fill="#8BC53F" d="M651.5,450.9c0.1,0.1,0.3,0.1,0.4,0.1c0.5,0,0.9-0.3,1.1-0.8c0.3-0.8,0.6-1.5,0.9-2.3
					c0.2-0.6-0.1-1.3-0.7-1.6c-0.6-0.2-1.3,0.1-1.6,0.7c-0.3,0.8-0.6,1.5-0.9,2.3C650.6,449.9,650.9,450.6,651.5,450.9z"/>
				<path fill="#8BC53F" d="M526,476.9c-0.3-1.4-0.5-2.3-0.5-2.3c-0.1-0.7-0.7-1.1-1.4-1c-0.7,0.1-1.1,0.7-1,1.4c0,0,0.1,1,0.5,2.5
					c0.1,0.6,0.6,0.9,1.2,0.9c0.1,0,0.2,0,0.3,0C525.8,478.2,526.2,477.6,526,476.9z"/>
				<path fill="#8BC53F" d="M648.5,457.6c0.2,0.1,0.3,0.1,0.5,0.1c0.5,0,0.9-0.3,1.1-0.7c0.3-0.7,0.7-1.5,1-2.3
					c0.3-0.6,0-1.3-0.6-1.6c-0.6-0.3-1.3,0-1.6,0.6c-0.3,0.7-0.7,1.5-1,2.2C647.7,456.6,647.9,457.3,648.5,457.6z"/>
				<path fill="#8BC53F" d="M528.2,483.7c-0.3-0.8-0.6-1.5-0.8-2.2c-0.2-0.6-0.9-1-1.6-0.7c-0.6,0.2-1,0.9-0.7,1.6
					c0.3,0.7,0.6,1.5,0.9,2.3c0.2,0.5,0.7,0.8,1.1,0.8c0.2,0,0.3,0,0.5-0.1C528.2,485.1,528.5,484.4,528.2,483.7z"/>
				<path fill="#8BC53F" d="M656.2,437c0.1,0,0.2,0,0.3,0c0.5,0,1-0.4,1.2-0.9c0.2-0.8,0.4-1.6,0.6-2.4c0.2-0.7-0.2-1.3-0.9-1.5
					c-0.7-0.2-1.3,0.2-1.5,0.9c-0.2,0.8-0.4,1.6-0.6,2.3C655.1,436.1,655.5,436.8,656.2,437z"/>
				<path fill="#8BC53F" d="M587.4,511.1c-0.8,0.2-1.6,0.4-2.3,0.5c-0.7,0.1-1.1,0.8-0.9,1.4c0.1,0.6,0.6,1,1.2,1c0.1,0,0.2,0,0.3,0
					c0.8-0.2,1.6-0.4,2.4-0.6c0.7-0.2,1.1-0.8,0.9-1.5C588.7,511.3,588,510.9,587.4,511.1z"/>
				<path fill="#8BC53F" d="M624.4,489.5c-0.6,0.6-1.2,1.1-1.8,1.7c-0.5,0.5-0.5,1.2-0.1,1.7c0.2,0.3,0.6,0.4,0.9,0.4
					c0.3,0,0.6-0.1,0.8-0.3c0.6-0.6,1.2-1.1,1.8-1.7c0.5-0.5,0.5-1.2,0-1.7C625.7,489,624.9,489,624.4,489.5z"/>
				<path fill="#8BC53F" d="M580.3,512.4c-0.8,0.1-1.6,0.2-2.4,0.3c-0.7,0.1-1.2,0.7-1.1,1.3c0.1,0.6,0.6,1.1,1.2,1.1
					c0,0,0.1,0,0.1,0c0.8-0.1,1.7-0.2,2.5-0.3c0.7-0.1,1.1-0.7,1.1-1.4C581.6,512.8,581,512.4,580.3,512.4z"/>
				<path fill="#8BC53F" d="M619.1,494.3c-0.6,0.5-1.2,1-1.9,1.5c-0.5,0.4-0.6,1.2-0.2,1.7c0.2,0.3,0.6,0.5,1,0.5
					c0.3,0,0.5-0.1,0.8-0.3c0.6-0.5,1.3-1,1.9-1.6c0.5-0.4,0.6-1.2,0.2-1.7C620.4,494,619.6,493.9,619.1,494.3z"/>
				<path fill="#8BC53F" d="M600.9,506.2c-0.7,0.3-1.5,0.7-2.2,1c-0.6,0.3-0.9,1-0.6,1.6c0.2,0.5,0.6,0.7,1.1,0.7
					c0.2,0,0.3,0,0.5-0.1c0.8-0.3,1.5-0.7,2.3-1c0.6-0.3,0.9-1,0.6-1.6C602.3,506.1,601.5,505.9,600.9,506.2z"/>
				<path fill="#8BC53F" d="M646.8,463.6c0.4-0.7,0.8-1.5,1.2-2.2c0.3-0.6,0.1-1.3-0.5-1.6c-0.6-0.3-1.3-0.1-1.6,0.5
					c-0.4,0.7-0.7,1.4-1.1,2.1c-0.3,0.6-0.1,1.3,0.5,1.7c0.2,0.1,0.4,0.1,0.6,0.1C646.2,464.3,646.6,464,646.8,463.6z"/>
				<path fill="#8BC53F" d="M594.3,509c-0.8,0.3-1.5,0.5-2.3,0.8c-0.6,0.2-1,0.9-0.8,1.5c0.2,0.5,0.6,0.8,1.2,0.8
					c0.1,0,0.3,0,0.4-0.1c0.8-0.3,1.6-0.5,2.4-0.8c0.6-0.2,1-0.9,0.7-1.6S594.9,508.7,594.3,509z"/>
				<path fill="#8BC53F" d="M607.3,502.7c-0.7,0.4-1.4,0.8-2.1,1.2c-0.6,0.3-0.8,1.1-0.5,1.7c0.2,0.4,0.6,0.6,1.1,0.6
					c0.2,0,0.4,0,0.6-0.2c0.7-0.4,1.4-0.8,2.1-1.2c0.6-0.3,0.8-1.1,0.4-1.7C608.6,502.6,607.9,502.4,607.3,502.7z"/>
				<path fill="#8BC53F" d="M573.2,512.9l-0.4,0c-0.7,0-1.3,0-2,0c-0.6,0-1.2,0.5-1.3,1.2c0,0.7,0.5,1.2,1.2,1.3c0.7,0,1.4,0,2,0
					l0.5,0c0.7,0,1.2-0.6,1.2-1.2S573.8,513,573.2,512.9z"/>
				<path fill="#8BC53F" d="M566,512.5c-0.8-0.1-1.6-0.2-2.4-0.3c-0.7-0.1-1.3,0.3-1.4,1c-0.1,0.7,0.3,1.3,1,1.4
					c0.8,0.1,1.6,0.2,2.5,0.3c0,0,0.1,0,0.1,0c0.6,0,1.1-0.5,1.2-1.1C567.1,513.2,566.7,512.6,566,512.5z"/>
				<path fill="#8BC53F" d="M559,511.2c-0.8-0.2-1.5-0.4-2.3-0.6c-0.6-0.2-1.3,0.2-1.5,0.8c-0.2,0.6,0.2,1.3,0.8,1.5
					c0.8,0.2,1.6,0.5,2.4,0.7c0.1,0,0.2,0,0.3,0c0.5,0,1-0.4,1.2-0.9C560,512.1,559.6,511.4,559,511.2z"/>
				<path fill="#8BC53F" d="M644,466.3c-0.6-0.3-1.3-0.2-1.7,0.4c-0.4,0.7-0.8,1.4-1.3,2.1c-0.4,0.6-0.2,1.3,0.4,1.7
					c0.2,0.1,0.4,0.2,0.6,0.2c0.4,0,0.8-0.2,1-0.6c0.4-0.7,0.9-1.4,1.3-2.1C644.7,467.4,644.6,466.6,644,466.3z"/>
				<path fill="#8BC53F" d="M629.5,484.2c-0.5,0.6-1.1,1.2-1.6,1.8c-0.5,0.5-0.4,1.3,0.1,1.7c0.2,0.2,0.5,0.3,0.8,0.3
					c0.3,0,0.7-0.1,0.9-0.4c0.6-0.6,1.1-1.2,1.7-1.8c0.5-0.5,0.4-1.3-0.1-1.7C630.7,483.7,629.9,483.7,629.5,484.2z"/>
				<path fill="#8BC53F" d="M752.8,335.2c0.2,0,0.3,0,0.5-0.1c0,0,0.4-0.2,1.1-0.5c0.6-0.3,0.9-1,0.6-1.6c-0.3-0.6-1-0.9-1.6-0.6
					c-0.7,0.3-1.1,0.5-1.1,0.5c-0.6,0.3-0.9,1-0.6,1.6C751.9,334.9,752.3,335.2,752.8,335.2z"/>
				<path fill="#8BC53F" d="M836.3,335.4c-0.5-0.4-1.3-0.3-1.7,0.2c-0.4,0.5-0.9,1.1-1.5,1.5c-0.5,0.4-0.6,1.2-0.2,1.7
					c0.2,0.3,0.6,0.5,1,0.5c0.3,0,0.5-0.1,0.8-0.3c0.7-0.6,1.4-1.2,1.9-1.9C837,336.6,836.9,335.8,836.3,335.4z"/>
				<path fill="#8BC53F" d="M855.4,325.3c0.2,0.3,0.6,0.5,1,0.5c0.2,0,0.5-0.1,0.7-0.2c0.5-0.4,0.7-1.2,0.3-1.7
					c-0.5-0.7-1-1.3-1.6-2c-0.4-0.5-1.2-0.6-1.7-0.1c-0.5,0.4-0.6,1.2-0.1,1.7C854.5,324.1,855,324.7,855.4,325.3z"/>
				<path fill="#8BC53F" d="M836.1,318.5c0.1,0,0.2,0.1,0.4,0.1c0.5,0,1-0.3,1.2-0.9c0.2-0.5,0.4-0.9,0.9-1.2
					c0.6-0.3,0.8-1.1,0.5-1.7c-0.3-0.6-1.1-0.8-1.7-0.5c-1,0.6-1.7,1.4-2.1,2.6C835.1,317.6,835.5,318.3,836.1,318.5z"/>
				<path fill="#8BC53F" d="M827.6,342.4c0.7-0.2,1.5-0.4,2.2-0.7l0.2-0.1c0.6-0.2,0.9-1,0.7-1.6c-0.2-0.6-1-0.9-1.6-0.7l-0.2,0.1
					c-0.7,0.2-1.3,0.5-2,0.6c-0.7,0.2-1,0.9-0.9,1.5c0.1,0.5,0.6,0.9,1.2,0.9C827.4,342.5,827.5,342.4,827.6,342.4z"/>
				<path fill="#8BC53F" d="M850.6,320.1c0.2,0.2,0.5,0.3,0.8,0.3c0.3,0,0.7-0.1,0.9-0.4c0.4-0.5,0.4-1.3-0.1-1.7
					c-0.7-0.6-1.4-1.1-2-1.6c-0.6-0.4-1.3-0.2-1.7,0.3c-0.4,0.6-0.2,1.3,0.3,1.7C849.4,319.1,850,319.6,850.6,320.1z"/>
				<path fill="#8BC53F" d="M758.4,332.8c0.1,0,0.3,0,0.4-0.1c0.7-0.3,1.5-0.6,2.3-0.9c0.6-0.2,1-0.9,0.7-1.6
					c-0.2-0.6-0.9-1-1.6-0.7c-0.8,0.3-1.6,0.6-2.3,0.9c-0.6,0.2-0.9,1-0.7,1.6C757.5,332.5,757.9,332.8,758.4,332.8z"/>
				<path fill="#8BC53F" d="M837.3,333.1c0.1,0,0.1,0,0.2,0c0.6,0,1.1-0.4,1.2-1c0.1-0.8,0.2-1.5,0.2-2.4l0-0.3
					c0-0.7-0.6-1.2-1.2-1.2c0,0,0,0,0,0c-0.7,0-1.2,0.6-1.2,1.2l0,0.2c0,0.7,0,1.4-0.2,2C836.2,332.4,836.6,333,837.3,333.1z"/>
				<path fill="#8BC53F" d="M842.6,316.1c0.7,0.1,1.4,0.3,2.1,0.5c0.1,0,0.3,0.1,0.4,0.1c0.5,0,1-0.3,1.2-0.8
					c0.2-0.6-0.1-1.3-0.8-1.6c-0.9-0.3-1.8-0.5-2.6-0.6c-0.7-0.1-1.3,0.4-1.4,1C841.5,315.4,841.9,316,842.6,316.1z"/>
				<path fill="#8BC53F" d="M837.3,325.8c0.7-0.1,1.1-0.8,1-1.4l-0.2-1.1c-0.1-0.5-0.2-0.9-0.2-1.3c-0.1-0.7-0.8-1.1-1.4-1
					c-0.7,0.1-1.1,0.8-1,1.4c0.1,0.4,0.2,0.9,0.2,1.4l0.2,1.1c0.1,0.6,0.6,1,1.2,1C837.2,325.8,837.2,325.8,837.3,325.8z"/>
				<path fill="#8BC53F" d="M795.9,331.3c-0.7-0.5-1.4-0.9-2.1-1.3c-0.6-0.4-1.3-0.2-1.7,0.4c-0.4,0.6-0.2,1.3,0.4,1.7
					c0.7,0.4,1.4,0.9,2.1,1.3c0.2,0.1,0.4,0.2,0.7,0.2c0.4,0,0.8-0.2,1-0.6C796.6,332.4,796.4,331.7,795.9,331.3z"/>
				<path fill="#8BC53F" d="M789.6,327.3c-0.8-0.5-1.5-0.9-2.2-1.2c-0.6-0.3-1.3-0.1-1.7,0.5c-0.3,0.6-0.1,1.3,0.5,1.7
					c0.7,0.3,1.3,0.7,2.1,1.2c0.2,0.1,0.4,0.2,0.6,0.2c0.4,0,0.8-0.2,1-0.6C790.4,328.4,790.2,327.7,789.6,327.3z"/>
				<path fill="#8BC53F" d="M774.6,325.4c-0.8,0.1-1.6,0.3-2.5,0.5c-0.7,0.2-1.1,0.8-0.9,1.5c0.1,0.6,0.6,0.9,1.2,0.9
					c0.1,0,0.2,0,0.3,0c0.8-0.2,1.6-0.3,2.4-0.5c0.7-0.1,1.1-0.8,1-1.4C775.9,325.7,775.3,325.3,774.6,325.4z"/>
				<path fill="#8BC53F" d="M802.1,335.1c-0.7-0.4-1.4-0.8-2.1-1.2c-0.6-0.3-1.3-0.2-1.7,0.4c-0.3,0.6-0.2,1.3,0.4,1.7
					c0.7,0.4,1.4,0.8,2.2,1.2c0.2,0.1,0.4,0.2,0.6,0.2c0.4,0,0.8-0.2,1.1-0.6C802.9,336.1,802.7,335.4,802.1,335.1z"/>
				<path fill="#8BC53F" d="M782.2,324.8c-0.4,0-0.8,0-1.2,0c-0.4,0-0.9,0-1.4,0c-0.7,0-1.2,0.6-1.2,1.3c0,0.7,0.6,1.2,1.2,1.2
					c0,0,0,0,0.1,0c0.4,0,0.8,0,1.2,0c0.4,0,0.7,0,1.1,0c0.6,0,1.3-0.5,1.3-1.2C783.4,325.4,782.9,324.8,782.2,324.8z"/>
				<path fill="#8BC53F" d="M822.3,340.8c-0.8,0.1-1.6,0.1-2.3,0c-0.7,0-1.2,0.5-1.3,1.2c0,0.7,0.5,1.2,1.2,1.3c0.3,0,0.5,0,0.8,0
					c0.6,0,1.2,0,1.8-0.1c0.7,0,1.2-0.6,1.1-1.3C823.6,341.3,823,340.8,822.3,340.8z"/>
				<path fill="#8BC53F" d="M767.3,327.2c-0.8,0.2-1.6,0.5-2.4,0.7c-0.6,0.2-1,0.9-0.8,1.5c0.2,0.5,0.6,0.8,1.2,0.8
					c0.1,0,0.3,0,0.4-0.1c0.8-0.2,1.5-0.5,2.3-0.7c0.6-0.2,1-0.9,0.8-1.5C768.7,327.4,768,327,767.3,327.2z"/>
				<path fill="#8BC53F" d="M808.6,338.2c-0.7-0.3-1.5-0.6-2.2-1c-0.6-0.3-1.3,0-1.6,0.6c-0.3,0.6,0,1.3,0.6,1.6
					c0.8,0.4,1.5,0.7,2.3,1c0.2,0.1,0.3,0.1,0.5,0.1c0.5,0,0.9-0.3,1.1-0.8C809.5,339.2,809.2,338.5,808.6,338.2z"/>
				<path fill="#8BC53F" d="M815.4,340.3c-0.8-0.2-1.5-0.3-2.3-0.5c-0.6-0.2-1.3,0.2-1.5,0.9c-0.2,0.7,0.2,1.3,0.9,1.5
					c0.8,0.2,1.7,0.4,2.5,0.6c0.1,0,0.2,0,0.2,0c0.6,0,1.1-0.4,1.2-1C816.5,341.1,816,340.5,815.4,340.3z"/>
				<path fill="#8BC53F" d="M860.5,329.7c-0.1-0.4-0.3-0.8-0.5-1.3c-0.3-0.6-1-0.9-1.6-0.7c-0.6,0.3-0.9,1-0.7,1.6
					c0.2,0.4,0.3,0.7,0.4,1c0.2,0.5,0.6,0.9,1.2,0.9c0.1,0,0.2,0,0.3,0C860.3,331,860.7,330.3,860.5,329.7z"/>
				<path fill="#8BC53F" d="M829.3,545.9c-0.3,0.8-0.6,1.6-0.9,2.4c-0.2,0.6,0.1,1.3,0.8,1.6c0.1,0,0.3,0.1,0.4,0.1
					c0.5,0,1-0.3,1.2-0.8c0.3-0.7,0.5-1.5,0.8-2.2c0.3-0.6,0-1.3-0.6-1.6C830.2,545,829.5,545.3,829.3,545.9z"/>
				<path fill="#8BC53F" d="M856,543.2c0.2,0.7,0.3,1.5,0.4,2.3c0.1,0.6,0.6,1.1,1.2,1.1c0.1,0,0.1,0,0.2,0c0.7-0.1,1.1-0.7,1.1-1.4
					c-0.1-0.9-0.3-1.7-0.4-2.5c-0.1-0.7-0.8-1.1-1.5-0.9C856.3,541.9,855.8,542.5,856,543.2z"/>
				<path fill="#8BC53F" d="M854.6,538.8c0.2,0.5,0.7,0.7,1.1,0.7c0.2,0,0.3,0,0.5-0.1c0.6-0.3,0.9-1,0.7-1.6
					c-0.3-0.8-0.7-1.6-1.1-2.3c-0.3-0.6-1.1-0.8-1.7-0.5c-0.6,0.3-0.8,1.1-0.5,1.7C854,537.3,854.3,538,854.6,538.8z"/>
				<path fill="#8BC53F" d="M832,543.1c0.2,0.1,0.4,0.2,0.6,0.2c0.4,0,0.8-0.2,1.1-0.6c0.4-0.7,0.8-1.4,1.3-2
					c0.4-0.6,0.2-1.3-0.3-1.7c-0.6-0.4-1.3-0.2-1.7,0.3c-0.5,0.7-0.9,1.4-1.3,2.1C831.2,542,831.4,542.7,832,543.1z"/>
				<path fill="#8BC53F" d="M839.4,535.2c0.5-0.5,0.5-1.2,0.1-1.7c-0.5-0.5-1.2-0.5-1.7-0.1c-0.6,0.6-1.2,1.2-1.8,1.8
					c-0.5,0.5-0.4,1.3,0.1,1.7c0.2,0.2,0.5,0.3,0.8,0.3c0.3,0,0.7-0.1,0.9-0.4C838.3,536.3,838.9,535.7,839.4,535.2z"/>
				<path fill="#8BC53F" d="M833.4,566.1c-0.4-0.5-1.2-0.6-1.7-0.1c-0.5,0.4-0.6,1.2-0.1,1.7c0.6,0.7,1.2,1.3,1.8,1.9
					c0.2,0.2,0.5,0.3,0.8,0.3c0.3,0,0.7-0.1,0.9-0.4c0.4-0.5,0.4-1.3-0.1-1.7C834.4,567.3,833.9,566.7,833.4,566.1z"/>
				<path fill="#8BC53F" d="M857.9,549c-0.7,0-1.2,0.5-1.3,1.2c0,0.8-0.1,1.6-0.2,2.3c-0.1,0.7,0.4,1.3,1.1,1.3c0,0,0.1,0,0.1,0
					c0.6,0,1.1-0.5,1.2-1.1c0.1-0.8,0.1-1.7,0.2-2.5C859.1,549.6,858.6,549,857.9,549z"/>
				<path fill="#8BC53F" d="M828,557.1c0.7,0,1.2-0.5,1.2-1.2c0-0.7,0.1-1.5,0.2-2.3c0.1-0.7-0.3-1.3-1-1.4c-0.7-0.1-1.3,0.3-1.4,1
					c-0.1,0.9-0.2,1.7-0.3,2.6C826.8,556.5,827.3,557,828,557.1C828,557.1,828,557.1,828,557.1z"/>
				<path fill="#8BC53F" d="M841.1,569.7l-0.7,0.1c0,0-0.9,0.2-1.8,0c-0.7-0.1-1.3,0.3-1.5,0.9c-0.1,0.7,0.3,1.3,0.9,1.5
					c0.5,0.1,1.1,0.2,1.6,0.2c0.6,0,1.1-0.1,1.3-0.2l0.3,0c0.7-0.1,1.2-0.6,1.1-1.3C842.4,570.2,841.8,569.7,841.1,569.7z"/>
				<path fill="#8BC53F" d="M830.3,561.4c-0.2-0.3-0.3-0.7-0.5-1.1c-0.2-0.6-0.9-1-1.6-0.8c-0.6,0.2-1,0.9-0.8,1.6
					c0.2,0.5,0.4,1,0.6,1.5c0.2,0.3,0.3,0.6,0.5,0.9c0.2,0.4,0.6,0.6,1.1,0.6c0.2,0,0.4-0.1,0.6-0.2c0.6-0.3,0.8-1.1,0.5-1.7
					C830.6,562,830.4,561.7,830.3,561.4z"/>
				<path fill="#8BC53F" d="M852.6,563.4c-0.4,0.6-0.9,1.2-1.5,1.7c-0.5,0.5-0.5,1.3,0,1.7c0.2,0.2,0.5,0.3,0.8,0.3
					c0.3,0,0.6-0.1,0.9-0.4c0.6-0.6,1.2-1.3,1.7-2c0.4-0.5,0.3-1.3-0.3-1.7C853.8,562.7,853,562.8,852.6,563.4z"/>
				<path fill="#8BC53F" d="M857.1,556.3c-0.7-0.2-1.3,0.2-1.5,0.8c-0.2,0.8-0.5,1.5-0.8,2.2c-0.3,0.6,0.1,1.3,0.7,1.6
					c0.1,0.1,0.3,0.1,0.5,0.1c0.5,0,0.9-0.3,1.1-0.8c0.3-0.8,0.6-1.6,0.8-2.4C858.1,557.2,857.7,556.5,857.1,556.3z"/>
				<path fill="#8BC53F" d="M846,530.3c-0.2-0.7-0.8-1-1.5-0.9c-0.8,0.2-1.7,0.5-2.5,1c-0.6,0.3-0.8,1-0.5,1.6
					c0.2,0.4,0.6,0.7,1.1,0.7c0.2,0,0.4,0,0.6-0.1c0.7-0.4,1.4-0.6,2-0.8C845.8,531.6,846.2,530.9,846,530.3z"/>
				<path fill="#8BC53F" d="M852.6,533.1c0.4-0.5,0.4-1.3-0.1-1.7c-0.3-0.2-0.5-0.5-0.8-0.7c-0.5-0.4-1-0.6-1.5-0.9
					c-0.6-0.3-1.3,0-1.6,0.6c-0.3,0.6,0,1.3,0.6,1.6c0.4,0.2,0.7,0.4,1.1,0.6c0.2,0.2,0.4,0.3,0.7,0.5c0.2,0.2,0.5,0.3,0.8,0.3
					C852,533.5,852.3,533.3,852.6,533.1z"/>
				<path fill="#8BC53F" d="M847.6,567.9c-0.7,0.4-1.3,0.7-2.1,0.9c-0.6,0.2-1,0.9-0.7,1.6c0.2,0.5,0.6,0.8,1.2,0.8
					c0.1,0,0.3,0,0.4-0.1c0.8-0.3,1.6-0.7,2.4-1.1c0.6-0.3,0.8-1.1,0.5-1.7C849,567.7,848.2,567.5,847.6,567.9z"/>
			</g>
			<path fill="#1B75BB" d="M876,322.5c0,0-12.8,41.1-7.6,50.3c5.2,9.2,6-14.4,6.4-25.3c0.5-10.9,5-22.3,5-22.3L876,322.5z"/>
			<path fill="#1B75BB" d="M920.7,475.3c0,0-10-4.9-21.6-19.1c-11.6-14.2-17.9-11.6-12.8-3.1c5.1,8.6,28,23.6,33.9,24.7L920.7,475.3
				z"/>
			<path fill="#1B75BB" d="M717.6,534.4c0,0-26.5,17.1-8.6,38.2c17.8,21.1,36.8,30.9,27.3,45.3c-9.5,14.4-34.1,15.6-22,19.3
				c12.2,3.7,32.7-1.8,33-31.5s-24.5-29.4-17.9-46.2C735.9,542.7,735,524.6,717.6,534.4z"/>
			<path fill="#1B75BB" d="M873.5,616.2c0,0-4.8-20.3,4.6-26.7s37.2-23.8,34.2-37.6s0.6-22.2,3.7-23.7s10.6,13.5,8.2,20.9
				c-2.4,7.3-11,23.2-18.2,32.4c-7.2,9.2-12.1,15-12.1,15s-15.1,7.6-15.8,13.6s2.1,17-1,15.6C874.2,624.3,873.5,616.2,873.5,616.2z"
				/>
			<path fill="#1B75BB" d="M885.8,339.7c0,0-11.6,67.9,4.3,94.6c15.9,26.7,31.4,34.5,31.4,34.5s2.2-36.9-7.1-66.7
				S885.8,339.7,885.8,339.7z"/>
			<path fill="#8BC53F" d="M921.4,445.9c-0.6-12.8-2.4-29.2-7-43.8c-4.6-14.7-11.7-30.2-17.6-42c-0.3,5-2,43.1,3.5,57.1
				C904.7,428.7,914.6,440.8,921.4,445.9z"/>
			<polygon fill="#1B75BB" points="810.8,257.7 740.2,325.7 729.6,322.7 772.9,261 			"/>
			<path fill="#1B75BB" d="M750,339.6c0,0,21.3-10.4,32.3-8.1s25.4,18.7,45,15s13.9-24.2,15.7-25.7c1.8-1.5,13.1,6.4,15.3,17.4
				c2.2,10.9-2.9,27.3-24,34.5c-21.1,7.2-56.6,6.6-56.6,6.6s-17.1-19.4-18.2-20.5C758.4,357.7,748.6,344.5,750,339.6z"/>
			<path fill="#8BC53F" d="M722.4,321.9c0.5,0,17.4,0.6,22.3,8.1c4.9,7.4,4.8,18.5,10.8,22.5c6,4.1,17.5,4.6,21.7,12.9
				c4.2,8.4,2.1,12.4,2.1,12.4h-56.4c0,0-13.6-3.3-17.2-10.6c-3.6-7.3-1.4-18-1.4-18s-2-15.8,0.7-19.6
				C707.8,325.9,722.4,321.9,722.4,321.9z"/>
			<path fill="#D6DE23" d="M705.1,347.3c0,0,1.5,4.7,8.1,3.8c6.5-0.9,9-6.6,9.6-10c1-6.3-3.1-17.7-11-15.6
				C703.8,327.6,705.1,347.3,705.1,347.3z"/>
			<path fill="#D6DE23" d="M711.6,347.5c0,0,0.2,26,19.7,29.2c0,0,3.3,1,2.9,0c-0.4-1-19.3-5.6-19.4-28L711.6,347.5z"/>
			<path fill="#3E5862" d="M775.4,313.3c0,0,3.7-14.2,16.1-18.8s22.9-2.6,22.9-2.6s-1.4,17.6-11.2,21.4
				C793.4,317.1,775.4,313.3,775.4,313.3z"/>
			<g>
				<path fill="#D6DE23" d="M542.7,555.2c-1.2-2.2-1.4-5-0.4-7.4c1.3-2.9,4.1-4.9,6.7-6.6c2.5-1.7,5-3.3,7.5-5
					c1.6-1.1,3.2-2.1,4.3-3.6c1.2-1.5,1.8-3.5,1.3-5.3c1.4,2.5,3.4,4.5,4.9,7c3.5,6,2.4,13.9-1.6,19.6c-4,5.7-10.5,9.2-17.2,10.8
					c-2.2,0.5-5,0.6-6.3-1.3c-0.5-0.8-0.6-1.8-0.5-2.7c0.1-1.6,0.7-3.1,1.8-4.3L542.7,555.2z"/>
			</g>
			<g>
				<g>
					<path fill="#E58C3C" d="M529,524.2C529,524.2,529,524.2,529,524.2c0.2-0.1,0.4-0.2,0.6-0.4L529,524.2z"/>
				</g>
				<g>
					<path fill="#E58C3C" d="M589.4,530.2c-1.8,0.7-3.5,1.4-5.1,2.4c-6.7,4.2-10.1,12.1-15.7,17.6c-2.3,2.3-5.1,4.1-8.1,5.5
						c-2.7,1.2-5.6,2-8.4,3.1c-0.9,0.3-1.8,0.7-2.6,1.2c0.5-4.5-1.4-9-3.5-13.1c-0.7-1.5-1.5-3-2.6-4.2c-1.6-1.8-3.8-2.8-5.7-4.3
						c-2-1.5-3.7-3.4-5.3-5.3c-1.1-1.3-2.2-2.6-2.9-4.1c-0.7-1.5-1-3.3-0.4-4.8c-2,1.3-3.7,2.8-5.4,4.5c-2.5,2.4-5,5.1-5.3,8.6
						c-0.2,2.5,0.8,4.9,1.7,7.2c0.7,1.6,1.3,3.1,2.2,4.5c2,3.2,4.9,5.6,7.8,8.1c2.9,2.4,5.7,5,7.3,8.4c1.2,2.6,1.6,5.7,0.6,8.4
						c-6.1,4.5-11.9,9.6-14.8,16.4c-0.4,1-0.8,2.1-0.8,3.2c-0.1,1.9,0.9,3.8,2.2,5.1c1.4,1.3,3.1,2.2,4.9,2.9
						c6.6,2.5,14.2,2.2,20.6-0.6c0.8-0.3,1.6-0.7,2.1-1.4c0.6-0.7,1-1.6,1.1-2.6c0.4-2.9-1-5.9-3.4-7.5c-2.4-1.6-5.6-1.9-8.3-0.8
						c-1.8,0.7-3.6,2.3-3.4,4.3c0.1,1,0.8,1.8,1.7,2.3c1.6,0.8,2.9-0.2,4.3-0.5c1-0.2,2.2,0,2.6,0.9c0.3,0.7-0.1,1.5-0.6,2
						c-0.5,0.4-1.1,0.7-1.8,0.8c-1.7,0.5-3.5,0.9-5.3,1.2c-2.3,0.4-4.7,0.6-7,0.1c-2.1-0.4-4.1-1.6-5.2-3.3c-2-3.1-0.9-7.2,1.1-10.2
						c2.1-3,5-5.2,7.3-8c0.7-0.8,1.3-1.7,2-2.4c0,0,0,0,0,0c3.4-2.4,7.2-4.1,11.2-4.9c5.6-1.1,13.6-2.8,18.5-4.1
						c7.8-2.1,15.2-5.8,21.5-10.9c1.1-0.9,2.3-1.9,3.1-3.1c3.2-4.8,0.5-11.4,2.5-16.8c1.3-3.5,4.3-6,7.3-8.2
						C597.5,527.8,593.3,528.8,589.4,530.2z"/>
				</g>
			</g>
			<g>
				<path fill="#8BC53F" d="M536.1,588.4c5.7-5.6,14.4-7,22.3-6c2.8,0.4,5.8,1,8.5,0.2c0.8-0.2,1.6-0.7,1.7-1.4
					c0.3-1.3-1.4-2.1-2.7-2.3c-5.5-0.8-11,0.3-16.4,1.4c-2.9,0.6-5.7,1.1-8.3,2.5c-2.6,1.3-4.8,3.6-5.5,6.4L536.1,588.4z"/>
			</g>
			<g>
				<path fill="#8BC53F" d="M543.3,538.6c-1.1-0.7-2-1.6-2.9-2.6c-2.3-2.3-4.6-4.7-5.7-7.7c-0.2-0.6-0.4-1.1-0.4-1.7
					c0-0.6,0.3-1.2,0.8-1.5c0.9-0.5,2.1,0.1,2.8,0.9c1.3,1.3,2.4,2.8,3.1,4.5c0.5,1.3,0.9,2.6,1.2,3.9c0.3,1.2,0.6,2.5,1,3.7
					C543.3,538.2,543.5,538.7,543.3,538.6z"/>
			</g>
			<g>
				<path fill="#8BC53F" d="M573.2,534.5c0.3-0.9,0.9-1.7,1.4-2.4c0.5-0.7,0.9-1.4,1.4-2c0.5-0.7,1-1.4,1.6-2
					c1.1-0.9,2.5-1.3,3.9-1.6c0.1,0,0.2,0,0.3,0c0.1,0.1,0.2,0.2,0.2,0.3c0.2,1-0.5,1.8-1.1,2.6c-0.6,0.7-1.1,1.4-1.8,2
					c-0.9,0.9-2,1.8-3,2.6c-1.1,0.8-2.1,1.7-3.2,2.5C572.9,536.4,572.8,535.4,573.2,534.5z"/>
			</g>
			<g>
				<path fill="#8BC53F" d="M549,534.1c-0.4-1.1-0.8-2.2-1.3-3.3c-0.2-0.6-0.5-1.2-0.5-1.9c0-0.7,0.1-1.4,0.6-1.8
					c0.5-0.5,1.3-0.6,2.1-0.6c0.6,0,1.2,0,1.7,0.3c0.5,0.4,0.6,1.2,0.7,1.9c0.1,0.8,0.1,1.6-0.1,2.3
					C551.5,532.4,549,534.1,549,534.1z"/>
			</g>
			<g>
				<path fill="#8BC53F" d="M531,563.5c0.6,0.6,1.3,1.1,1.8,1.8c1.5,2.2,0.9,5.4-0.7,7.6c-1.6,2.2-4.1,3.5-6.4,4.9
					c2.2-1.2,3.7-3.5,4-5.9c0.1-0.6,0.1-1.2-0.1-1.8c-0.5-2.3-2.9-3.6-5-4.6c-2.1-1-4.5-2.5-4.8-4.8c-0.1-0.7,0.1-1.5,0.6-2
					c0.7-0.7,1.9-0.6,2.9-0.4C523.4,558.2,528.5,561.3,531,563.5z"/>
			</g>
			<g>
				<path fill="#8BC53F" d="M476.6,625.5c1-4.8,4.5-8.8,8.8-11.3s9.1-3.6,14-4.3c3.6-0.5,7.3-1,10.4-2.9c3.1-1.9,5.2-5.9,3.7-9.2
					c-0.2-0.5-0.6-1-1.1-1.3c-1.1-0.7-2.7,0-3.5,1.1c-0.8,1.1-1.2,2.4-1.9,3.5c-1.2,2-3.2,3.3-5.3,4.2c-2.1,0.8-4.4,1.2-6.7,1.7
					c-3.2,0.7-6.3,1.6-9.4,2.7c-1.6,0.6-3.3,1.3-4.7,2.3c-4,3-5.3,8.7-4.2,13.6L476.6,625.5z"/>
			</g>
			<g>
				<path fill="#E58C3C" d="M720.3,600.3c3.6,2.4,7.5,5.2,8.6,9.4c0.3,1,0.3,2-0.1,2.9c-0.3,0.6-0.8,1.1-1.4,1.5
					c-3,2.4-7,3.5-10.7,3c-3.8-0.5-7.4-2.5-9.7-5.5c-0.3-0.4-0.6-0.8-0.6-1.3c-0.1-0.8,0.6-1.5,1.4-1.8c0.8-0.3,1.6-0.2,2.4-0.1
					c2.2,0.3,4.5,0.5,6.7,0.8c-6.1-1.1-12.4-2.2-17.8-5.2c4.6-1.4,9.7-1.4,14.4,0.2c-6.1-1.2-12.1-3.1-17.8-5.6
					c-0.6-0.3-1.2-0.8-1-1.4c4.2-0.7,8.6-0.1,12.4,1.8c-5.9-2.2-11.4-5.6-16-9.9c-0.3-0.3-0.7-0.7-0.8-1.1c-0.2-1.3,1.7-1.7,2.9-1.5
					C696.4,587.1,714.6,596.4,720.3,600.3z"/>
			</g>
			<path fill="#E58C3C" d="M713.7,526.5c-0.3-0.5-24.3-33.5-19.2-38.4S713.7,526.5,713.7,526.5z"/>
			<path fill="#E58C3C" d="M720.3,524.2c0,0-5.8-39.2,1.8-41.7C729.8,480.1,720.3,524.2,720.3,524.2z"/>
			<path fill="#E58C3C" d="M728.3,525.1c0,0,19.3-44.9,25.5-38.7C760.1,492.7,728.3,525.1,728.3,525.1z"/>
			<path fill="#E58C3C" d="M920.7,506.9c0,0,1.9,10.7,2.2,15c0.3,4.3,0.3,4.3,0.3,4.3s-3.6-6.1-4.4-9.6
				C918,513,919.3,503.6,920.7,506.9z"/>
			<path fill="#3E5862" d="M552.9,452.5c0,0,2.7-0.4,3.1,2.3c0.4,2.8-5.6,9.3-4.5,11.4c1.1,2.1-3.7,1.3-1.4-4.3c2.3-5.6,1.2-7,1-8
				C550.9,452.9,552.9,452.5,552.9,452.5z"/>
			<path fill="#3E5862" d="M555.5,462.3c0,0,2.7-0.2,3,2.5s-6.1,8.9-5.1,11.1s-3.8,1.1-1.1-4.4s1.6-6.9,1.4-7.9
				S555.5,462.3,555.5,462.3z"/>
			<path fill="#3E5862" d="M556.4,471.9c0,0,2.5-1.1,3.6,1.5c1.1,2.6-3.1,10.4-1.5,12.2c1.6,1.8-3.3,2.2-2.4-3.8c0.9-6-0.5-7-1-8
				C554.5,472.8,556.4,471.9,556.4,471.9z"/>
			<path fill="#3E5862" d="M568.6,486.4c0,0-0.6-2.7,2.2-3.2c2.7-0.6,9.6,5.1,11.7,3.8c2.1-1.2,1.5,3.6-4.2,1.6
				c-5.7-2-7-0.8-8.1-0.5C569.1,488.4,568.6,486.4,568.6,486.4z"/>
			<path fill="#3E5862" d="M581.1,484.8c0,0-1-2.5,1.6-3.6c2.6-1,10.3,3.3,12.1,1.7c1.8-1.6,2.1,3.3-3.8,2.3c-6-1-7,0.4-8,0.9
				C581.9,486.7,581.1,484.8,581.1,484.8z"/>
			<path fill="#3E5862" d="M590.4,480.3c0,0-1-2.5,1.6-3.6c2.6-1,10.3,3.3,12.1,1.7c1.8-1.6,2.1,3.3-3.8,2.3s-7,0.4-8,0.9
				C591.3,482.3,590.4,480.3,590.4,480.3z"/>
			<path fill="#3E5862" d="M599.8,476.2c0,0-1.4-2.4,1-3.8c2.4-1.4,10.7,1.7,12.3-0.1s2.6,2.9-3.4,2.9c-6.1,0-6.9,1.5-7.8,2.1
				C601,478,599.8,476.2,599.8,476.2z"/>
			<path fill="#3E5862" d="M609.1,470.7c0,0-1.9-2,0.1-3.9s10.8-0.9,11.9-3c1.1-2.2,3.2,2.2-2.7,3.6c-5.9,1.4-6.4,3.1-7.1,3.9
				C610.6,472.1,609.1,470.7,609.1,470.7z"/>
			<path fill="#3E5862" d="M616.1,463.3c0,0-2.2-1.6-0.5-3.9c1.7-2.2,10.5-2.5,11.3-4.8s3.5,1.7-2.1,4s-5.8,4-6.4,4.9
				C617.9,464.5,616.1,463.3,616.1,463.3z"/>
			<path fill="#3E5862" d="M620.2,454.7c0,0-2.2-1.6-0.5-3.9c1.7-2.2,10.5-2.5,11.3-4.8s3.5,1.7-2.1,4c-5.6,2.3-5.8,4-6.4,4.9
				S620.2,454.7,620.2,454.7z"/>
			<path fill="#3E5862" d="M559.9,481.9c0,0,1.1-2.5,3.2-1.7c2.1,0.8,3.4,8.7,5.5,8.6c2.1-0.1-1,3.7-3.7-0.6c-2.6-4.3-4.1-4-5-4.2
				C559.1,483.9,559.9,481.9,559.9,481.9z"/>
			<path fill="#D6DE23" d="M701.1,440.6c0,0,12.2,9.8,23.1,3c10.8-6.7,13.5-4.7,14.2,0c0.7,4.7-8.5,12.6-16.2,12.2
				C714.4,455.3,708.1,451.9,701.1,440.6z"/>
			<path fill="#D6DE23" d="M744.6,438.1c0.5-0.6,11.4-18,7.7-33.2c-3.7-15.1-10.7-14.1-13.9-9.9c-3.2,4.1,6.6,17.1,7,25.1
				C745.7,428,744.6,438.1,744.6,438.1z"/>
			<path fill="#D6DE23" d="M711.6,413.7c0,0-0.4,19.9,11.4,20.5s17.7-11.9,14.8-19c-2.9-7.1-8.7-9.8-11.6-8.8
				c-2.9,1-4.7,5.3-0.3,11.1s3.8,10.2,0.3,11.5C722.6,430.1,715.8,428.1,711.6,413.7z"/>
			<path fill="#3E5862" d="M901.6,593.1c1.7-4.1,4.5-7.4,7.7-11.3c6.2-7.5,14-16.9,19.7-37.1c8.3-29.7-1.1-56-6.2-63.6
				c2.1-17.8,2.6-42.3-3.8-70.8c-8.4-37.7-34.3-82.6-42.4-95.9c16.7-3.2,42.7-13.2,46.5-16.9c1.5-1.5,1.4-2.9,1.2-3.7
				c-0.5-1.7-2-2.4-2.6-2.6c-4.3-1.9-20-4.6-32.3-6.5c-7.4-1.1-12.8-1.9-16.8-2.4c17.6-9.9,41.4-26.8,48.8-49.5
				c10-30.8-7.7-48-8.4-48.7l-6.2-5.9l1.1,8.5c0,0.2,2.5,20.3-9.4,37.9c-7.8,11.6-31.4,21.3-44.6,26.1c-0.4-0.4-5.5-4.5-13.1-5.9
				c-5.3-0.9-22.7,5.6-35.4,10.9c-20.5-1.4-31.4,1.7-42.3,7.1c-4.1,2-6.6,5.1-8.1,8.1c-9.3-1-45-7.1-43.5-42.3l0.8-18.7l-6.7,17.4
				c-0.4,0.9-8.7,23.2,1.3,43.6c5.7,11.6,16.1,20.1,31,25.4c-0.5,1.3-1,3-1.6,5.1c-1.1,4-3.2,11.4-5.1,13.2
				c-1.5,1.4-8.7,3.6-13.5,5.1c-6.4,2-10.5,3.3-12.5,4.7c-3.7,2.6-3.9,8.6-4.1,15.6c-0.1,3.5-0.2,7.2-0.8,9.7
				c-1.4,5.6-1.6,14.4,2.4,20.6c2.3,3.6,5.8,6.1,10.1,7c8,1.7,17.6,3.2,26.2,3.9c-7.6,3.9-17.7,10.1-29.5,19.6
				c-4.1,3.3-7.9,7.1-11.3,11.2c-4.8,2.7-47.4,26.4-78.4,23.6c-3-1-22.5-7.3-42.9-3.5c-7.3,1.4-16.2,5.1-25,10.9
				c-8,0.5-45,3.6-66.7,23.1c-16.7,14.9-8.7,35.6-1.7,53.8c5.1,13.3,10,25.9,5.9,35.3c-2.7,6.1-9.7,6.9-15.2,6.6
				c-18-1.2-41.8-16.2-45.4-28.7c-3.4-11.6,1.2-22.3,5.6-32.7c3.1-7.2,6-14.1,6.2-21.1c0.3-10.2-3.7-19.2-11.3-25.9
				c-9.6-8.4-24.3-12.1-38.4-9.8c-10.7,1.7-17.1,5.7-22.3,8.9c-6.2,3.8-9.9,6.1-18.1,3.7l-8.5-2.5l4.3,7.8c0.2,0.4,5.9,10.5,23,13.3
				c10,1.7,21.3-3.4,31.2-7.8c6.2-2.7,12.5-5.6,16.1-5.4c10.7,0.5,13.3,10,13.6,17.8c0.1,3.3-3.3,11.6-6.7,19.5
				c-5.5,13-11.6,27.7-10.5,38c1.5,13.3,16.9,30.1,35.8,39c8.9,4.2,17.7,6.3,25.9,6.3c8.3,0,15.9-2.2,22.6-6.5c4-2.6,7-5.4,9.3-8.4
				c-4.9,12.2-11.6,24.7-13.5,28.3c-3.9,1.5-16.6,6.6-22.2,13.2c-7.8,9.2-7.2,18.7-6.6,26.4c0.2,2.7,0.4,5.3,0.1,7.5
				c-0.3,2.3-0.4,6.2-0.4,11.1c-0.3,13.4-0.7,35.9-6.4,44c-7.4,10.6-5.5,18.4-3.7,22.1c0.9,1.9,2,3.4,3.3,4.6
				c1.2,6.3,4.9,22.1,11.1,25.2c4.6,2.3,11.5,3.1,18.5,3.1c9.8,0,19.4-1.6,22-2.7c1.3-0.6,3.5-2.2,3.7-6.8
				c0.3-7.2-4.2-17.2-13.2-23.3c3.3-5.5,3.9-11.9,1.2-17c-2.7-5.1-1.8-46.4,1.1-51.8c3.4-2.2,5.8-6.4,7.7-9.9c0.6-1,1.2-2,1.6-2.6
				c0.9-0.2,3.1-0.5,5.1-0.7c7.6-0.8,20.4-2.2,31.5-9.2l1.3-0.8c11.8-7.4,24.8-15.5,35.9-28.9c10.4-1,18.8-0.7,28.7,3.5
				c-0.2,1.4-0.6,4-0.9,8c-0.1,1.9-2.1,4.6-4,7.2c-2.9,3.9-6.1,8.4-6,13.5c0.1,3.3,1,5.9,2,8.7c1.5,4.3,3.4,9.7,3.4,21.1
				c0,12.6-1.7,20.3-2.8,25.4c-1.1,5-1.8,8.6,0,12.2c1.2,2.3,2.8,3.8,4.7,4.9c1.4,4.6,2.7,9.8,2.7,10.9c-0.1,2.8,2.8,5.9,4.5,7.5
				c1.7,1.6,6.1,5.3,10.6,4.8c1.6-0.2,6,0.1,10.2,0.3c4.9,0.3,8.6,0.5,11.3,0.5c5.3,0,7.2-0.7,7.8-3c2.2-8.1-9.7-18.8-15.5-23.4
				c0.3-0.5,0.5-1.1,0.7-1.6c1.1-3.5,1.5-6.3-2.4-12.4c-1.7-3-0.7-22.8,1.3-40.1c13.1-5.7,24.1-15.1,27.5-18.2
				c3.1,0.3,6.1,0.5,8.8,0.5c5.6,0,10.1-0.6,12.9-1c0.2,4.9,0.2,11.2-0.3,18.3l0,0.2c0,0.1-0.2,12.6-5.8,18.8
				c-7.4,8.1-8.7,23.5-8.9,26.2c-2.6,8.6-12.4,35.7-19.7,41.2c-7.2,5.4-12.4,11-11.3,19.8c0.1,1.1,0.4,2.4,1,3.7
				c-4,5.5-16.7,23.7-19.1,38.2l-0.5,3l3,0.5c0.3,0.1,5.8,1,12.5,1c1.5,0,3.1-0.1,4.7-0.2v2.9l3.1,0c0.7,0,18.4-0.3,29-6.3
				c9.6-5.5,12-23.7,12.6-30.2c0.8-0.4,1.6-0.9,2.4-1.6c4.4-4,6.2-12.5,4.6-21.6c-0.6-3.3,6.3-21.6,13.1-37.1
				c3.6-1.5,6.9-4.2,8.7-7.3c2.2-3.7,3.4-9.6,4.6-15.8c0.6-2.8,1.2-5.7,1.8-8.2c1.4-5.2,11.8-18.5,19.8-29.6
				c7.7-6.4,11-15.9,11.9-18.9c1.1-1.1,2.2-2.2,3.1-3.4c10.8-0.3,30.1-3.2,41.9-5l2.7-0.4c2.8-0.4,7-0.2,11.9,0.1
				c6.8,0.4,14.8,0.8,22.6-0.4c-0.5,2.5-1.3,6.1-2.7,10.8c-3,10.5-0.8,22.4,5.5,30.1c5.3,6.5,14,53.8,10.8,58.9
				c-2.3,3.5-2.7,7.5-1.1,11.3c1.3,3,3.7,5.7,7.1,7.8c-0.9,8.1-2.1,26.4,6,30.3c4.4,2.1,12.3,4,18.2,5.1c4.8,0.9,8.1,1.2,10.4,1.2
				c4.3,0,4.9-1.2,5.4-2.2c0.2-0.4,0.4-0.9,0.4-1.5c3.2,1,6.9,1.6,10.1,1.6c1.7,0,3.2-0.2,4.4-0.6c2.4-0.8,3.3-2.3,3.6-3.5
				c3.5-11.2-8.8-32.3-12.4-38c0.1-0.3,0.2-0.5,0.2-0.8c1.5-6.5-0.3-13.1-4.8-17l-0.3-0.2c-10.3-8.6-18.7-51.8-18.3-56.2
				c2.3-9.8,1.6-19.3,1.2-23.9c-0.1-0.7-0.1-1.5-0.1-2c0.4-0.8,1.4-2.5,2.4-4.2C889.8,616,897.7,602.5,901.6,593.1z M372.3,458.7
				c4.9-3,10.4-6.4,19.6-7.9c8.3-1.4,16.8-0.3,23.9,2.9c-2.6-0.3-7.2-0.8-14.2-0.8c-11.3,0-17.5,2.3-17.5,2.3L395,455l-12.9,2.8
				l14.2-0.7l-15.7,3l20.2-1.4c-9.6,2.4-26.5,3.9-26.5,3.9l8.1,1.8c-4.1,0.2-15.7-0.3-15.7-0.3c1.5,0.6,6.6,2.5,6.6,2.5
				c-3.6-0.1-9.6-1.5-13.2-2.4C364.7,463.3,368.5,461.1,372.3,458.7z M903.6,227.9c7.7-11.4,10-23.5,10.5-31.8
				c3.6,7.1,6.7,18.8,1.6,34.7c-8,24.8-38.1,42.5-54.6,50.7c0,0-0.1,0-0.1,0l0,0c-1.6,0.8-3.1,1.5-4.4,2.1c-2.8,1.3-6.1,0.9-8.4-1
				c-2.7-2.3-7.2-6.7-6.5-10.8c0.5-3.1,1.4-6.1,2.6-8.7c0.9-2.1,2.7-3.7,4.9-4.4C862.1,254.5,893.4,243.1,903.6,227.9z M863.7,287
				C863.7,287,863.7,287,863.7,287C863.7,287.1,863.7,287,863.7,287L863.7,287z M712.4,268.3c-3.5-7.2-4.4-14.8-4.2-21.3
				c8.7,22.7,35.2,28.4,44.9,29.8c-0.3,1.5-0.3,2.8-0.4,3.9c-3.8,3.3-8.2,7.2-11.2,10.5C727.4,286.5,717.6,278.8,712.4,268.3z
				 M714,371.3c-2.7-0.6-4.8-2-6.2-4.2c-2.7-4.3-2.8-11.1-1.6-15.9c0.8-3.2,0.9-7.1,1-11c0.1-3.4,0.3-9.8,1.5-10.8
				c1.4-1,6.6-2.6,10.8-3.9c1.7-0.5,3.2-1,4.7-1.5c4.3,0.8,9.7,2.1,13.6,3.7c7.6,3.1,7.3,9.1,11.3,19.2s13,9.6,20.5,13.8
				c7.7,4.3,9.5,11.4,9.8,15.2c-1.9-0.1-3.8-0.3-5.7-0.4c-4.2-0.3-7.9-0.6-11.2-0.7c0,0,0,0,0,0l0,0c-4.1-0.2-7.4-0.2-9.8,0.2
				C743.5,376.4,726.7,374,714,371.3z M493.2,569.6c-15,9.7-32.3,3.9-41.3-0.3c-16.5-7.8-30.4-22.4-31.6-33.2
				c-0.2-1.8-0.1-4,0.3-6.3c0.2,1.8,0.6,3.5,1.1,5.3c4.8,16.8,32.6,32.7,52,34c11,0.7,19-3.2,22.4-10.9c5.3-12.2-0.3-26.8-5.8-40.9
				c-6.8-17.6-13.2-34.2-0.3-45.7c15.5-13.9,38.6-18.6,51-20.1c-4.8,4.3-9.4,9.3-13.5,15c-12.8,1.3-36,9-36,29.5
				c0,7.5,3.1,16.1,6.5,25.1C504.9,539.9,511.5,557.8,493.2,569.6z M504.8,518.5c-3.1-8.4-6-16.3-6-22.6c0-14,14.7-19.2,23.3-21.1
				c-3.8,6.8-6.8,14.3-8.8,22.5c-2.8,11.8-4.2,22.6-4.8,31.7C507.4,525.4,506.1,521.8,504.8,518.5z M505.6,739.4
				c0.7,2.9,0.4,4.7,0.2,5.3c-4.3,1.5-26.4,4-35.1-0.3c-2.1-1.1-5-8.6-6.9-16.5c1.2,0.2,2.7,0.5,4.4,0.8c3.9,0.8,8.5,1.6,12.9,1.6
				c4.1,0,8.2-0.8,11.4-3.2c0.9-0.7,1.8-1.5,2.6-2.3C502.8,729.8,505.1,737.1,505.6,739.4z M650.6,721.6c-3,0.1-9-0.2-12.8-0.4
				c-4.9-0.3-9.2-0.5-11.2-0.3c-2.4,0.2-7.5-4.4-8.3-6.3c-0.1-1.8-0.9-5.4-1.8-8.8c1.2,0.2,2.3,0.3,3.5,0.5c1.8,0.2,3.6,0.5,5.5,0.8
				c1.5,0.3,2.9,0.4,4.2,0.4c3,0,5.3-0.7,7.2-1.7C643.6,711,649.7,717.7,650.6,721.6z M636.7,642.1l-1.7,0.7l-0.2,1.8
				c-1.1,9.2-4.3,39.9-0.6,45.8c2.7,4.3,2.4,5.2,1.7,7.5c-0.4,1.4-2.2,4.5-9.4,3.2c-2.1-0.4-4.1-0.6-5.8-0.9
				c-6.1-0.8-9.1-1.3-10.5-4.2c-0.8-1.7-0.4-3.7,0.5-8.2c1.2-5.3,2.9-13.4,2.9-26.7c0-12.5-2.1-18.6-3.7-23.1
				c-0.9-2.6-1.6-4.4-1.6-6.8c-0.1-3,2.4-6.4,4.8-9.7c2.5-3.5,4.9-6.7,5.2-10.4c0.2-2.5,0.4-4.3,0.5-5.7c4.8,2.6,10,6,16,10.6
				c8.3,6.3,17.2,9.8,25.5,11.6C655.1,631.8,646.3,638.2,636.7,642.1z M674.6,790.2c-6.7,3.8-17.3,5-22.7,5.4
				c1.1-7.2,5.3-17.5,7.1-21.3l-5.6-2.6c-0.3,0.6-5.4,11.8-7.3,21.2c-5.1,0.5-10.5,0.1-13.7-0.2c3-11.5,12.2-25.3,16.4-31.2
				c0.9,0.7,2,1.3,3.4,1.9c5.5,2.3,10.8,2.9,15.5,2.9c2.9,0,5.5-0.2,8-0.4c3.4-0.3,6.3-0.5,8.3,0
				C683.2,773.3,680.7,786.8,674.6,790.2z M901.9,733.8c5.5,9.5,11.6,23,10,29.4c-2.2,0.8-10.1-0.5-13.7-2.3c-1-3-2.5-7-4.6-12.4
				l-0.3-0.8l-5.7,2.3l0.3,0.8c1.3,3.2,4.4,10.9,5.3,14.7c-5.3-0.2-19.5-2.7-25.5-5.7c-2.9-1.4-3.7-11.9-2.8-22
				c2,0.7,4.2,1.4,6.6,1.8c1.4,0.3,3.4,0.4,5.6,0.4c5.8,0,13.3-0.9,17.9-2C897.7,737.4,900.1,735.9,901.9,733.8z M880.3,620.2
				c-2.5,4.2-2.9,4.9-3.1,5.5c-0.3,0.9-0.2,1.8,0,4.2c0.4,4.6,1,13.2-1.1,22.1c-1.4,5.7,8,51.9,20.4,62.2l0.2,0.2
				c2.7,2.3,3.8,6.7,2.8,10.9c-0.9,3.6-3.1,6.2-5.9,6.9c-6.3,1.5-17,2.3-20.9,1.5c-7.9-1.6-13.5-4.9-15.2-8.8
				c-0.8-1.9-0.6-3.7,0.6-5.6c5.5-8.5-5.5-59.1-11.2-66.1c-5.1-6.2-6.8-15.9-4.3-24.6c1.9-6.8,2.8-11.4,3.3-13.8
				c4.6-1.4,8.9-3.5,12.6-6.8c8.2-7.4,13.1-15.9,16-24.2c27.8-24.4,37.5-62.9,37.9-64.6c-0.1,0.4-11.6,26.6-35,52.5
				c2.1-14.5-0.8-26.2-1-27.1c0.1,0.3,2.8,36.3-22,58.9c-9.3,8.4-24.8,7.6-37.2,7c-0.9,0-1.8-0.1-2.7-0.1
				c16.8-13.6,19-29.7,19.1-30.5c0,0.2-8.6,18-30.2,30.7l-2.1,0.3c-9.3,1.4-25.3,3.8-36.2,4.6c3.6-5.5,6-11.5,7.3-17.9
				c17.7-29.7,15-59.3,9.6-79.1c-5.9-21.3-15.8-35.5-16.2-36.1c0.4,0.5,28.5,50.2,7.6,99.9c-0.5-6.9-2.1-14-4.9-21.5
				c-7-19-18.9-32.8-19.4-33.4c0.4,0.4,24.6,34.5,18.1,67c-0.1,0.1-0.2,0.3-0.3,0.4l0.2,0.1c-1.9,9.3-6.4,18.4-14.7,26.5l-0.6,0.6
				l-0.2,0.8c0,0.1-2.7,10.5-10.4,16.7l-0.3,0.3l-0.2,0.3c-2.1,2.9-18.9,23.9-21,32c-0.7,2.7-1.3,5.7-1.9,8.6
				c-1.1,5.5-2.3,11.1-3.9,13.9c-1.4,2.3-4.4,4.5-7.3,5.2c-5.3,1.4-19.4-0.2-19.4-0.2c1.9,1.1,7.5,5.8,16,6.5
				c-4.7,10.9-13,31.2-12,36.9c1.4,8-0.4,13.9-2.7,16c-0.8,0.8-1.7,1-2.7,0.7c-3.1-0.8-6.5-0.5-10.6-0.2c-6.2,0.5-13.1,1.1-20.6-2.1
				c-2.8-1.2-4.4-3-4.7-5.6c-0.8-6.2,5-14.8,10.8-19.1c10.3-7.7,19.1-36.4,20.1-39.7l0.1-0.3l0-0.4c0-0.2,0.9-15.7,7.4-22.8
				c7-7.6,7.4-21.3,7.4-22.8c0.5-7.4,0.3-26.4-0.4-29.6c-0.2-1.2-1-2.3-2.1-4c-3.3-4.9-11.2-16.5-11.1-41.9c0.1-20.6,2-29.8,4-43.3
				c-0.3,0.7-6.1,12.9-8.8,28.5c-1.2-23.9,12.8-57.6,12.9-58c-9.9,8.7-28.5,52.8-14.2,76.1c0.6,24.9,8.6,36.8,12.1,42
				c0.5,0.7,1,1.5,1.2,1.9c0.1,0.6,0.2,1.8,0.3,3.4c-7,1.2-31.6,3.9-51.1-11c-22.7-17.4-32.9-19.3-49.9-17.6c2.1-3,4.2-6.3,6.1-9.9
				c12.5-23.3,26-79.9,26.6-82.3c-0.1,0.6-19.8,56.8-32,79.4c-11.7,21.9-28.9,32.6-44.1,42.1l-1.3,0.8c-9.9,6.2-21.8,7.5-28.9,8.3
				c-5.1,0.6-7.4,0.8-8.8,2.4c-0.8,0.9-1.6,2.3-2.5,4c-1.6,2.8-3.7,6.6-5.9,7.9c-1.4,0.8-4.5,2.7-5.2,29.1
				c-0.1,4.2-0.5,25.6,2.2,30.6c2.3,4.1,0.7,11.4-5.9,16.2c-4.5,3.3-13.2,1.6-19.5,0.4c-2.4-0.5-4.5-0.9-6.2-1
				c-0.6-0.1-3-1.5-4.3-4.8c-1.8-4.3-0.6-9.7,3.5-15.5c6.8-9.7,7.2-32.4,7.5-47.4c0.1-4.6,0.2-8.5,0.4-10.5c0.3-2.7,0.1-5.6-0.1-8.7
				c-0.5-7.2-1-14.7,5.2-22c4.5-5.3,16.5-10.3,20.7-11.8l1.1-0.4l0.6-1c0.5-0.8,11.5-20.5,17.1-37.1c0.3-0.9,0.2-1.9,0-5.1
				c-0.6-8.3-2.1-30.2,4.5-58.8c8.3-35.8,39.3-57,58.6-60.6c20.1-3.8,39.9,3.3,40.1,3.3l0.4,0.1l0.4,0c24.4,2.4,54.5-10.1,70.9-18.2
				c-11.2,17-16.8,34-17.1,35c0.1-0.3,11.7-22.6,28.3-40.9c0.4-0.3,0.7-0.4,0.9-0.5l-0.2-0.3c3.7-4,7.6-7.8,11.7-11.1
				c23.6-19.2,40.2-24.1,42.4-24.7c1.4-0.1,3.1-0.1,5,0c1.7,1.1,5.2,3.7,9.3,7.8c-0.4,7.2-1.9,39.1,5.9,52.7
				c-3.5-11.4-1.7-34.9-0.5-46.6c7.8,9.7,15.8,24.5,17.5,45.6c1.5,17.7,15,28.1,28.1,38.2c12.4,9.5,28.2,18,29.9,32.9
				c0.3-17.3-13.2-27.7-26.2-37.7c-12.6-9.7-24.5-18.8-25.7-33.9c-2.5-31-17.6-49.3-27.6-58.2c0.6,0,1.3,0.1,1.9,0.1
				c7.9,0.6,16.9,1.2,25.6,1.2c6.5,0,12.8-0.4,18.3-1.4c14.8-2.7,35.1-13.3,43.5-27.7c3.9-6.7,1.5-15.6-3.2-18.2
				c1.7,4.8,1,9.9-2.1,15.1c-7.2,12.3-25.6,22.2-39.3,24.7c-10.3,1.9-23.8,1.3-35.9,0.5c1.8-6.7,0.8-15.2-19.4-22.8
				c-11.6-4.4-6.9-16.1-15.2-26.2c-2.4-2.9-8.1-4.9-13-6.2c1.1-0.6,2-1.1,2.6-1.7c3-2.7,4.8-8.6,6.9-16c0.6-2,1.1-4,1.5-4.9
				c1-2.1,14.3-18.2,23-25.5l-7.6,3.4c0.5-2.5,2.1-5.6,6.7-7.9c7.2-3.6,12.8-7,27.2-7l-12.1,9.6c18-7.9,55.2-20.7,58.9-20
				c2.7,0.5,5.1,1.4,6.8,2.4c-3.5,1.3-6.4,4-7.9,7.5c-1.4,3.1-2.4,6.5-3,10.1c-0.9,5.4,2,11.1,8.6,16.6c2.5,2.1,5.7,3.2,8.9,3.2
				c2,0,4-0.4,5.9-1.3c1.2-0.5,2.5-1.2,3.9-1.9c5.4,0.3,39.3,5.1,52,8.1c-11.4,5.5-35.7,14-48.4,13.6c-7-0.2-15.4-0.8-15.4-0.8
				c0.5,0.6,3.6,3.7,13.7,6.7c0.9,0.3,2,0.4,3.4,0.4c0.6,0,1.2,0,1.8-0.1c5.5,9.2,33.6,57.7,43.1,96.5c10.2,41.7,3.3,99.5,3.3,99.5
				s2.6-7,4.8-19.4c3.1,9.9,7.8,30.2,1.9,51.1c-5.3,19-12.6,27.8-18.5,34.9c-3.4,4.1-6.6,7.9-8.7,12.9
				C892.2,599.7,884.5,613,880.3,620.2z"/>
			<path fill="#D6DE23" d="M784.7,309.5c0,0,9.8,4.7,15.3,1.1c5.5-3.6,7.2-8.7,7.4-13.5c0,0-5.4,0.7-7.7,1.1c0,0,1.9,6-1.5,7.7
				c-3.5,1.7-9.2-1.5-9.2-1.5S785.2,307.4,784.7,309.5z"/>
		</g>
	</g>
</g>
<g id="text">
</g>
</svg>
